<?xml version="1.0" encoding="UTF-8" standalone="no"?>
<!-- Created with Inkscape (http://www.inkscape.org/) -->

<svg
   xmlns:dc="http://purl.org/dc/elements/1.1/"
   xmlns:cc="http://creativecommons.org/ns#"
   xmlns:rdf="http://www.w3.org/1999/02/22-rdf-syntax-ns#"
   xmlns:svg="http://www.w3.org/2000/svg"
   xmlns="http://www.w3.org/2000/svg"
   xmlns:sodipodi="http://sodipodi.sourceforge.net/DTD/sodipodi-0.dtd"
   xmlns:inkscape="http://www.inkscape.org/namespaces/inkscape"
   version="1.1"
   id="svg2"
   xml:space="preserve"
   width="3363.3135"
   height="1960.7198"
   viewBox="0 0 3363.3135 1960.7199"
   sodipodi:docname="microwave.svg"
   inkscape:version="0.92.5 (2060ec1f9f, 2020-04-08)"><metadata
     id="metadata8"><rdf:RDF><cc:Work
         rdf:about=""><dc:format>image/svg+xml</dc:format><dc:type
           rdf:resource="http://purl.org/dc/dcmitype/StillImage" /><dc:title></dc:title></cc:Work></rdf:RDF></metadata><defs
     id="defs6"><clipPath
       clipPathUnits="userSpaceOnUse"
       id="clipPath106"><path
         d="m 22940.6,17225.5 h 2513.6 v 892.5 h -2513.6 z"
         id="path104"
         inkscape:connector-curvature="0" /></clipPath></defs><sodipodi:namedview
     pagecolor="#ffffff"
     bordercolor="#666666"
     borderopacity="1"
     objecttolerance="10"
     gridtolerance="10"
     guidetolerance="10"
     inkscape:pageopacity="0"
     inkscape:pageshadow="2"
     inkscape:window-width="1920"
     inkscape:window-height="1016"
     id="namedview4"
     showgrid="false"
     fit-margin-top="0"
     fit-margin-left="0"
     fit-margin-right="0"
     fit-margin-bottom="0"
     inkscape:zoom="0.12300209"
     inkscape:cx="1226.7862"
     inkscape:cy="-158.17006"
     inkscape:window-x="0"
     inkscape:window-y="27"
     inkscape:window-maximized="1"
     inkscape:current-layer="g12" /><g
     id="g10"
     inkscape:groupmode="layer"
     inkscape:label="ink_ext_XXXXXX"
     transform="matrix(1.3333333,0,0,-1.3333333,-237.0073,2895.7984)"><g
       id="g12"
       transform="scale(0.1)"><g
         id="g1999"><g
           transform="scale(1.65666)"
           id="g26"><path
             inkscape:connector-curvature="0"
             id="path28"
             style="fill:#1b1918;fill-opacity:1;fill-rule:nonzero;stroke:none"
             d="M 16058.2,4233.27 H 1334.45 c -109.04,0 -197.69,87.95 -198.58,196.96 l -62.89,7689.07 c -0.81,98.7 97.07,179.3 117.64,179.3 H 16190.6 c 29.3,0 109.4,-80.4 108.7,-179.1 l -53.6,-7700.07 c -0.8,-103.04 -84.5,-186.16 -187.5,-186.16" /></g><g
           transform="scale(1.65182)"
           id="g30"><path
             inkscape:connector-curvature="0"
             id="path32"
             style="fill:#e9e8e7;fill-opacity:1;fill-rule:nonzero;stroke:none"
             d="M 16059,4304.46 H 1383.07 c -108.7,0 -197.05,86.99 -197.94,194.81 l -62.69,7604.13 c -0.81,97.7 96.76,177.3 117.26,177.3 H 16191 c 29.1,0 109,-79.5 108.3,-177.1 l -53.5,-7615.04 c -0.7,-101.89 -84.1,-184.1 -186.8,-184.1" /></g><g
           transform="scale(1.65177)"
           id="g34"><path
             inkscape:connector-curvature="0"
             id="path36"
             style="fill:#9c9c9b;fill-opacity:1;fill-rule:nonzero;stroke:none"
             d="m 16299.8,12104 -53.4,-7615.31 c -0.2,-29.24 -7.2,-56.84 -19.7,-81.42 l -98.5,410.28 0.7,98.68 46.9,6661.97 1.5,234.2 14.2,468.6 c 5.1,0 11.9,-2.5 19.5,-7.1 20.8,-12.6 47.9,-41.3 66.7,-79 l 0.1,-0.3 c 13.2,-26.5 22.2,-57.5 22,-90.6" /></g><g
           transform="scale(1.64643)"
           id="g38"><path
             inkscape:connector-curvature="0"
             id="path40"
             style="fill:#9c9c9b;fill-opacity:1;fill-rule:nonzero;stroke:none"
             d="m 16300,4630.56 -0.9,-127.3 c -0.8,-102.22 -84.5,-184.7 -187.6,-184.7 H 1387.57 c -108.99,0 -197.68,87.28 -198.54,195.45 l -0.97,116.55 H 16300" /></g><g
           transform="scale(1.61301)"
           id="g42"><path
             inkscape:connector-curvature="0"
             id="path44"
             style="fill:#afafad;fill-opacity:1;fill-rule:nonzero;stroke:none"
             d="M 15444.1,5032.88 H 2399.93 c -439.83,0 -797.12,355.18 -799.69,795.04 L 1564.62,11898 c -0.62,106.2 85.28,192.6 191.45,192.6 H 16147.6 c 84.1,0 152.4,-68.2 152.4,-152.4 l -33.2,-6087.1 c -2.4,-452.63 -370.1,-818.22 -822.7,-818.22" /></g><g
           transform="scale(1.60015)"
           id="g46"><path
             inkscape:connector-curvature="0"
             id="path48"
             style="fill:#313034;fill-opacity:1;fill-rule:nonzero;stroke:none"
             d="m 15510.8,5187.21 h -1549.9 v 6882.99 h 2266 c 40.4,0 73.1,-32.9 73,-73.2 l -25.1,-6048.92 c -1.7,-420.78 -343.3,-760.87 -764,-760.87" /></g><g
           transform="scale(1.63015)"
           id="g50"><path
             inkscape:connector-curvature="0"
             id="path52"
             style="fill:#36373b;fill-opacity:1;fill-rule:nonzero;stroke:none"
             d="M 16300,12615.3 H 1312.41 l 1114.18,611.8 c 114.49,62.9 243,95.9 373.61,95.9 h 11927.5 c 122.7,0 243.8,-29.1 353.1,-85 l 1219.2,-622.7" /></g><g
           transform="scale(1.63015)"
           id="g54"><path
             inkscape:connector-curvature="0"
             id="path56"
             style="fill:#1f1e1e;fill-opacity:1;fill-rule:nonzero;stroke:none"
             d="m 16300,12615.3 h -311.7 l -1233.9,630.1 c -68.1,34.8 -140.1,60.9 -214.2,77.6 h 187.6 c 122.6,0 243.7,-29.1 353,-84.9 l 1219.2,-622.8" /></g><g
           transform="scale(1.63834)"
           id="g58"><path
             inkscape:connector-curvature="0"
             id="path60"
             style="fill:#212122;fill-opacity:1;fill-rule:nonzero;stroke:none"
             d="m 1305.84,12552.2 c 0,0 -117.83,-43.8 -88.18,-99.4 0,0 47.42,66.1 88.18,66.1 40.77,0 14994.16,0 14994.16,0 0,0 -39.6,33.3 -81.5,33.3 -42,0 -14912.66,0 -14912.66,0" /></g><g
           transform="scale(1.64555)"
           id="g62"><path
             inkscape:connector-curvature="0"
             id="path64"
             style="fill:#37383d;fill-opacity:1;fill-rule:nonzero;stroke:none"
             d="M 16300,12381.7 H 1198.67 c 35.02,43.9 65.17,73.1 87.89,80 H 16228.7 l 71.3,-80" /></g><g
           transform="scale(1.36456)"
           id="g66"><path
             inkscape:connector-curvature="0"
             id="path68"
             style="fill:#313034;fill-opacity:1;fill-rule:nonzero;stroke:none"
             d="M 16284.4,6082.75 H 2916.17 c -483.77,0 -876.75,390.67 -879.59,874.41 l -41.59,7095.64 c 0,55.9 45.32,101.2 101.23,101.2 H 16300 l -15.6,-8071.25" /></g><g
           transform="scale(1.64952)"
           id="g70"><path
             inkscape:connector-curvature="0"
             id="path72"
             style="fill:#72727a;fill-opacity:1;fill-rule:nonzero;stroke:none"
             d="m 16300,12211.3 -225.5,-310.5 -139.5,-191.9 c -3.8,92 -123.1,114.1 -123.1,114.1 l 264.2,312.3 137.5,162.5 c 6.9,-1.7 13.5,-4.1 19.5,-7.1 45.1,-22.3 65.4,-75.5 66.8,-79.2 l 0.1,-0.2" /></g><g
           transform="scale(1.12245)"
           id="g74"><path
             inkscape:connector-curvature="0"
             id="path76"
             style="fill:#5e6061;fill-opacity:1;fill-rule:nonzero;stroke:none"
             d="M 16300,15119.1 V 9196.06 c 0,-161.34 -130.8,-292.13 -292.2,-292.13 H 4551.12 c -161.3,0 -292.06,130.79 -292.06,292.13 v 5923.04 c 0,161.4 130.76,292.1 292.06,292.1 H 16007.8 c 161.4,0 292.2,-130.7 292.2,-292.1" /></g><g
           transform="scale(1.34184)"
           id="g78"><path
             inkscape:connector-curvature="0"
             id="path80"
             style="fill:#f5f6f5;fill-opacity:1;fill-rule:nonzero;stroke:none"
             d="m 16277.4,6493.47 c -9.1,-221.78 -40.7,-307.79 -40.7,-307.79 h -1213.8 c 57.7,58.88 64.5,289.68 64.5,289.68 0,0 -40.8,7169.44 -54.3,7407.04 -13.7,237.5 -74.8,366.5 -74.8,366.5 h 1160.8 c 180.9,-144.8 158.3,-1013.6 158.3,-1013.6 0,0 9,-6520.12 0,-6741.83" /></g><g
           transform="scale(1.24202)"
           id="g82"><path
             inkscape:connector-curvature="0"
             id="path84"
             style="fill:#1b1918;fill-opacity:1;fill-rule:nonzero;stroke:none"
             d="m 16300,6995.79 c 0,0 -7.4,-249.35 -69.7,-312.96 -128.4,0 -223.7,923.98 -223.7,923.98 0,0 29.4,6086.19 14.7,7009.99 -14.7,924 139.2,777.3 139.2,777.3 0,0 66.1,-139.3 80.8,-395.9 14.7,-256.7 58.7,-8002.41 58.7,-8002.41" /></g><g
           transform="scale(1.37052)"
           id="g86"><path
             inkscape:connector-curvature="0"
             id="path88"
             style="fill:#100f0d;fill-opacity:1;fill-rule:nonzero;stroke:none"
             d="m 16272,14866.3 -94.6,96.1 h -70.8 l 88.6,-96.1 34,-636.5 v -137.3 l -15.6,-8036.19 -1.4,-132.94 -34.8,-735.42 h 38.5 l 56.1,735.42 v 132.94 h 28 v 8036.19 137.3 l -28,636.5" /></g><g
           transform="scale(1.64577)"
           id="g90"><path
             inkscape:connector-curvature="0"
             id="path92"
             style="fill:#72727a;fill-opacity:1;fill-rule:nonzero;stroke:none"
             d="m 16300,4461.43 -14.1,-38.1 -222.6,719.24 -135.8,438.76 11.3,74.49 125.2,-414.21 236,-780.18" /></g><g
           transform="scale(1.24451)"
           id="g94"><path
             inkscape:connector-curvature="0"
             id="path96"
             style="fill:#72727a;fill-opacity:1;fill-rule:nonzero;stroke:none"
             d="m 1845.94,16300 478.11,-629.4 -92.84,-4.1 c 0,0 -141.83,-3.3 -172.56,-124.4 0,0 6.83,109 -56.59,167.6 -63.43,58.5 -243.94,253.7 -243.94,253.7 0,0 -313.18,336.6 -112.69,336.6 200.51,0 200.51,0 200.51,0" /></g><path
           inkscape:connector-curvature="0"
           id="path98"
           style="fill:#72727a;fill-opacity:1;fill-rule:nonzero;stroke:none"
           d="m 2595.8,9213.8 -607.1,-1917.2 12.25,-23.3 620.64,1813.4 -25.79,127.1" /><g
           id="g100"><g
             clip-path="url(#clipPath106)"
             id="g102"><g
               transform="scale(1.56161)"
               id="g108"><path
                 inkscape:connector-curvature="0"
                 id="path110"
                 style="fill:#3b3b42;fill-opacity:1;fill-rule:nonzero;stroke:none"
                 d="M 14690.4,11602.1 H 16300 v -571.5 h -1609.6" /></g></g></g><g
           transform="scale(1.44502)"
           id="g112"><path
             inkscape:connector-curvature="0"
             id="path114"
             style="fill:#60574d;fill-opacity:1;fill-rule:nonzero;stroke:none"
             d="m 16290,12419.2 10,-12 -24.1,-152.2 -22,-18 -16,18 19.5,138.8 z m -38.1,-194 18.1,-20 -26.1,-156.8 -12,-7.4 -23.5,28.3 23.8,138.2 z m -165.9,210.1 h 188 l 11.7,-11.8 -33.5,-26.3 h -157.9 l -22.3,30 z m -12,-184.3 h 158.7 l 17.2,-18.9 -22.6,-20.8 H 16070 l -20,21.7 z m -8,172.2 24,-30 -24,-140.2 -18.6,-14.3 -17.5,20.3 26.1,156.2 z m -19.2,-357.9 156.5,-0.3 22.6,-30 -16,-10 h -186 l -10,12 z m -0.8,162 15.9,-20.1 -20.8,-137.9 -33.2,-26.3 -8,12.1 26.1,158.2 20,14" /></g><g
           transform="scale(1.4755)"
           id="g116"><path
             inkscape:connector-curvature="0"
             id="path118"
             style="fill:#60574d;fill-opacity:1;fill-rule:nonzero;stroke:none"
             d="m 16290.2,12162.6 9.8,-11.8 -23.6,-149 -21.5,-17.6 -15.7,17.6 19.1,135.9 z m -37.3,-189.9 17.7,-19.6 -25.6,-153.6 -11.7,-7.3 -23,27.8 23.3,135.3 z m -162.5,205.7 h 184.1 l 11.5,-11.6 -32.8,-25.7 h -154.7 l -21.8,29.4 z m -11.7,-180.5 h 155.4 l 16.8,-18.5 -22.1,-20.4 h -154.1 l -19.6,21.3 z m -7.9,168.7 23.5,-29.5 -23.5,-137.3 -18.2,-13.9 -17.1,19.8 25.5,153 z m -18.8,-350.6 153.3,-0.2 22.1,-29.4 -15.6,-9.8 h -182.2 l -9.8,11.7 z m -0.8,158.6 15.7,-19.6 -20.4,-135 -32.6,-25.8 -7.8,11.8 25.4,154.9 19.7,13.7" /></g><g
           transform="scale(1.48899)"
           id="g120"><path
             inkscape:connector-curvature="0"
             id="path122"
             style="fill:#60574d;fill-opacity:1;fill-rule:nonzero;stroke:none"
             d="m 16235.1,11716.2 22.7,23.3 c 2.8,2.7 5.5,3.9 8,3.9 2.4,0 5.3,-1.4 8.7,-4.4 l 22.1,-23.9 c 2.3,-3 3.4,-5.7 3.4,-8.1 0,-2.7 -1.3,-5.6 -3.9,-8.6 l -22.2,-24.4 c -3.7,-3.7 -6.4,-5.5 -8.1,-5.5 -2.9,0 -5.6,1.3 -8,3.9 l -24.4,28 c -1.9,2.4 -2.8,4.8 -2.8,7.2 0,2.8 1.5,5.7 4.5,8.6 z m 0,192.4 22.7,23.3 c 2.8,2.6 5.5,3.9 8,3.9 2.4,0 5.3,-1.4 8.7,-4.4 l 22.1,-23.9 c 2.3,-3 3.4,-5.6 3.4,-8.1 0,-2.7 -1.3,-5.6 -3.9,-8.6 l -22.2,-24.4 c -3.7,-3.7 -6.4,-5.5 -8.1,-5.5 -2.9,0 -5.6,1.3 -8,3.9 l -24.4,28 c -1.9,2.4 -2.8,4.8 -2.8,7.2 0,2.8 1.5,5.7 4.5,8.6" /></g><g
           transform="scale(1.52011)"
           id="g124"><path
             inkscape:connector-curvature="0"
             id="path126"
             style="fill:#60574d;fill-opacity:1;fill-rule:nonzero;stroke:none"
             d="m 16290.5,11805.7 9.5,-11.4 -22.8,-144.7 -20.9,-17.1 -15.3,17.1 18.5,131.9 z m -36.2,-184.4 17.1,-19 -24.7,-149.1 -11.4,-7 -22.3,26.9 22.6,131.4 z m -157.7,199.7 h 178.7 l 11.1,-11.2 -31.8,-25 h -150.1 l -21.2,28.6 z m -11.4,-175.2 h 150.9 l 16.3,-18 -21.5,-19.8 h -149.5 l -19.1,20.7 z m -7.6,163.7 22.8,-28.5 -22.8,-133.3 -17.7,-13.5 -16.6,19.2 24.7,148.5 z m -18.2,-340.2 148.7,-0.3 21.5,-28.5 -15.3,-9.5 h -176.7 l -9.6,11.4 z m -0.9,153.9 15.3,-19 -19.9,-131.1 -31.5,-25 -7.6,11.5 24.7,150.3 19,13.3" /></g><g
           transform="scale(1.5506)"
           id="g128"><path
             inkscape:connector-curvature="0"
             id="path130"
             style="fill:#60574d;fill-opacity:1;fill-rule:nonzero;stroke:none"
             d="m 16290.6,11573.6 9.4,-11.2 -22.4,-141.8 -20.5,-16.8 -14.9,16.8 18.1,129.3 z m -35.4,-180.7 16.8,-18.7 -24.2,-146.1 -11.3,-6.9 -21.8,26.4 22.1,128.7 z m -154.6,195.7 h 175.2 l 10.9,-11 -31.2,-24.5 h -147.2 l -20.8,28 z m -11.2,-171.8 h 148 l 16,-17.6 -21.1,-19.4 h -146.6 l -18.7,20.3 z m -7.4,160.6 22.3,-28 -22.3,-130.7 -17.4,-13.3 -16.2,18.9 24.2,145.6 z m -17.9,-333.6 145.8,-0.2 21,-28 -14.9,-9.3 h -173.3 l -9.3,11.1 z m -0.8,150.9 14.9,-18.6 -19.5,-128.5 -30.9,-24.6 -7.4,11.3 24.2,147.4 18.7,13" /></g><g
           transform="scale(1.5993)"
           id="g132"><path
             inkscape:connector-curvature="0"
             id="path134"
             style="fill:#4d586f;fill-opacity:1;fill-rule:nonzero;stroke:none"
             d="M 13968.3,8948.35 H 16300 V 9950.54 H 13968.3 V 8948.35" /></g><g
           transform="scale(1.45165)"
           id="g136"><path
             inkscape:connector-curvature="0"
             id="path138"
             style="fill:#d0cfd3;fill-opacity:1;fill-rule:nonzero;stroke:none"
             d="m 16206.3,10544.4 h -447.5 c -51.8,0 -93.7,42 -93.7,93.7 v 164 c 0,51.8 41.9,93.7 93.7,93.7 h 447.5 c 51.7,0 93.7,-41.9 93.7,-93.7 v -164 c 0,-51.7 -42,-93.7 -93.7,-93.7" /></g><g
           transform="scale(1.51277)"
           id="g140"><path
             inkscape:connector-curvature="0"
             id="path142"
             style="fill:#d0cfd3;fill-opacity:1;fill-rule:nonzero;stroke:none"
             d="m 16210.1,10118.4 h -429.4 c -49.7,0 -89.9,40.2 -89.9,89.9 v 157.4 c 0,49.6 40.2,89.9 89.9,89.9 h 429.4 c 49.7,0 89.9,-40.3 89.9,-89.9 v -157.4 c 0,-49.7 -40.2,-89.9 -89.9,-89.9" /></g><g
           transform="scale(1.57348)"
           id="g144"><path
             inkscape:connector-curvature="0"
             id="path146"
             style="fill:#d0cfd3;fill-opacity:1;fill-rule:nonzero;stroke:none"
             d="m 16213.6,9728 h -412.9 c -47.8,0 -86.4,38.7 -86.4,86.43 v 151.32 c 0,47.75 38.6,86.45 86.4,86.45 h 412.9 c 47.7,0 86.4,-38.7 86.4,-86.45 v -151.32 c 0,-47.73 -38.7,-86.43 -86.4,-86.43" /></g><g
           transform="scale(1.45165)"
           id="g148"><path
             inkscape:connector-curvature="0"
             id="path150"
             style="fill:#d0cfd3;fill-opacity:1;fill-rule:nonzero;stroke:none"
             d="m 16206.3,9933.8 h -447.5 c -51.8,0 -93.7,41.95 -93.7,93.7 v 163.9 c 0,51.8 41.9,93.7 93.7,93.7 h 447.5 c 51.7,0 93.7,-41.9 93.7,-93.7 v -163.9 c 0,-51.75 -42,-93.7 -93.7,-93.7" /></g><g
           transform="scale(1.51277)"
           id="g152"><path
             inkscape:connector-curvature="0"
             id="path154"
             style="fill:#d0cfd3;fill-opacity:1;fill-rule:nonzero;stroke:none"
             d="m 16210.1,9532.43 h -429.4 c -49.7,0 -89.9,40.25 -89.9,89.9 v 157.32 c 0,49.65 40.2,89.91 89.9,89.91 h 429.4 c 49.7,0 89.9,-40.26 89.9,-89.91 v -157.32 c 0,-49.65 -40.2,-89.9 -89.9,-89.9" /></g><g
           transform="scale(1.57348)"
           id="g156"><path
             inkscape:connector-curvature="0"
             id="path158"
             style="fill:#d0cfd3;fill-opacity:1;fill-rule:nonzero;stroke:none"
             d="m 16213.6,9164.66 h -412.9 c -47.8,0 -86.4,38.71 -86.4,86.44 v 151.25 c 0,47.73 38.6,86.44 86.4,86.44 h 412.9 c 47.7,0 86.4,-38.71 86.4,-86.44 V 9251.1 c 0,-47.73 -38.7,-86.44 -86.4,-86.44" /></g><g
           transform="scale(1.45165)"
           id="g160"><path
             inkscape:connector-curvature="0"
             id="path162"
             style="fill:#d0cfd3;fill-opacity:1;fill-rule:nonzero;stroke:none"
             d="m 16206.3,9306.44 h -447.5 c -51.8,0 -93.7,41.89 -93.7,93.69 v 163.95 c 0,51.74 41.9,93.69 93.7,93.69 h 447.5 c 51.7,0 93.7,-41.95 93.7,-93.69 v -163.95 c 0,-51.8 -42,-93.69 -93.7,-93.69" /></g><g
           transform="scale(1.51277)"
           id="g164"><path
             inkscape:connector-curvature="0"
             id="path166"
             style="fill:#d0cfd3;fill-opacity:1;fill-rule:nonzero;stroke:none"
             d="m 16210.1,8930.42 h -429.4 c -49.7,0 -89.9,40.19 -89.9,89.9 v 157.33 c 0,49.64 40.2,89.9 89.9,89.9 h 429.4 c 49.7,0 89.9,-40.26 89.9,-89.9 v -157.33 c 0,-49.71 -40.2,-89.9 -89.9,-89.9" /></g><g
           transform="scale(1.57348)"
           id="g168"><path
             inkscape:connector-curvature="0"
             id="path170"
             style="fill:#d0cfd3;fill-opacity:1;fill-rule:nonzero;stroke:none"
             d="m 16213.6,8585.88 h -412.9 c -47.8,0 -86.4,38.64 -86.4,86.43 v 151.26 c 0,47.73 38.6,86.43 86.4,86.43 h 412.9 c 47.7,0 86.4,-38.7 86.4,-86.43 v -151.26 c 0,-47.79 -38.7,-86.43 -86.4,-86.43" /></g><g
           transform="scale(1.45165)"
           id="g172"><path
             inkscape:connector-curvature="0"
             id="path174"
             style="fill:#d0cfd3;fill-opacity:1;fill-rule:nonzero;stroke:none"
             d="m 16206.3,8762.72 h -447.5 c -51.8,0 -93.7,41.88 -93.7,93.61 v 164.02 c 0,51.74 41.9,93.69 93.7,93.69 h 447.5 c 51.7,0 93.7,-41.95 93.7,-93.69 v -164.02 c 0,-51.73 -42,-93.61 -93.7,-93.61" /></g><g
           transform="scale(1.45048)"
           id="g176"><path
             inkscape:connector-curvature="0"
             id="path178"
             style="fill:#d0cfd3;fill-opacity:1;fill-rule:nonzero;stroke:none"
             d="m 16206.2,6535.57 h -447.9 c -51.8,0 -93.7,41.91 -93.7,93.69 v 164.15 c 0,51.78 41.9,93.76 93.7,93.76 h 447.9 c 51.8,0 93.8,-41.98 93.8,-93.76 v -164.15 c 0,-51.78 -42,-93.69 -93.8,-93.69" /></g><g
           transform="scale(1.57343)"
           id="g180"><path
             inkscape:connector-curvature="0"
             id="path182"
             style="fill:#d0cfd3;fill-opacity:1;fill-rule:nonzero;stroke:none"
             d="m 16213.6,6024.86 h -412.9 c -47.7,0 -86.4,38.65 -86.4,86.38 v 151.32 c 0,47.73 38.7,86.44 86.4,86.44 h 412.9 c 47.7,0 86.4,-38.71 86.4,-86.44 v -151.32 c 0,-47.73 -38.7,-86.38 -86.4,-86.38" /></g><g
           transform="scale(1.51277)"
           id="g184"><path
             inkscape:connector-curvature="0"
             id="path186"
             style="fill:#d0cfd3;fill-opacity:1;fill-rule:nonzero;stroke:none"
             d="m 16210.1,8408.66 h -429.4 c -49.7,0 -89.9,40.19 -89.9,89.84 v 157.39 c 0,49.65 40.2,89.9 89.9,89.9 h 429.4 c 49.7,0 89.9,-40.25 89.9,-89.9 V 8498.5 c 0,-49.65 -40.2,-89.84 -89.9,-89.84" /></g><g
           transform="scale(1.57348)"
           id="g188"><path
             inkscape:connector-curvature="0"
             id="path190"
             style="fill:#d0cfd3;fill-opacity:1;fill-rule:nonzero;stroke:none"
             d="m 16213.6,8084.26 h -412.9 c -47.8,0 -86.4,38.63 -86.4,86.36 v 151.32 c 0,47.73 38.6,86.44 86.4,86.44 h 412.9 c 47.7,0 86.4,-38.71 86.4,-86.44 v -151.32 c 0,-47.73 -38.7,-86.36 -86.4,-86.36" /></g><g
           transform="scale(1.41498)"
           id="g192"><path
             inkscape:connector-curvature="0"
             id="path194"
             style="fill:#100f0d;fill-opacity:1;fill-rule:nonzero;stroke:none"
             d="m 16252.2,11007.2 h 15.7 c 4.6,0 8.2,1.1 10.6,3.3 2.5,2.2 3.7,5.3 3.7,9.4 0,4.2 -1.2,7.6 -3.7,10.1 -2.5,2.6 -5.8,3.9 -10.2,4 h -16.1 z m 0,-14.3 v -30 h -17.6 v 85.3 h 33.3 c 6.4,0 12,-1.1 16.9,-3.4 4.9,-2.4 8.6,-5.7 11.2,-10 2.7,-4.4 4,-9.3 4,-14.8 0,-8.4 -2.9,-15 -8.6,-19.8 -5.7,-4.8 -13.7,-7.3 -23.8,-7.3 h -15.4" /></g><g
           transform="scale(1.41764)"
           id="g196"><path
             inkscape:connector-curvature="0"
             id="path198"
             style="fill:#100f0d;fill-opacity:1;fill-rule:nonzero;stroke:none"
             d="m 16300,10942.2 h -17.6 v 85.2 h 17.6 v -85.2" /></g><g
           transform="scale(1.42442)"
           id="g200"><path
             inkscape:connector-curvature="0"
             id="path202"
             style="fill:#100f0d;fill-opacity:1;fill-rule:nonzero;stroke:none"
             d="m 16257.2,10904.2 h 42.8 v -14 h -64.6 v 10.3 l 42,60.4 h -41.9 v 14.1 h 63.6 v -10 l -41.9,-60.8" /></g><g
           transform="scale(1.43074)"
           id="g204"><path
             inkscape:connector-curvature="0"
             id="path206"
             style="fill:#100f0d;fill-opacity:1;fill-rule:nonzero;stroke:none"
             d="m 16257.4,10856 h 42.6 v -13.9 h -64.4 v 10.2 l 41.8,60.1 h -41.7 v 14.1 h 63.3 v -9.9 l -41.6,-60.6" /></g><g
           transform="scale(1.43809)"
           id="g208"><path
             inkscape:connector-curvature="0"
             id="path210"
             style="fill:#100f0d;fill-opacity:1;fill-rule:nonzero;stroke:none"
             d="m 16250.1,10817.9 h 21 l -10.6,31.5 z m 25.7,-13.9 h -30.4 l -5.8,-17.3 h -18.4 l 31.3,84 h 16.1 l 31.4,-84 h -18.4 l -5.8,17.3" /></g><g
           transform="scale(1.5272)"
           id="g212"><path
             inkscape:connector-curvature="0"
             id="path214"
             style="fill:#100f0d;fill-opacity:1;fill-rule:nonzero;stroke:none"
             d="m 16255.7,10198.4 h 14.6 c 4.3,0 7.6,1 9.9,3 2.2,2.1 3.4,5 3.4,8.7 0,3.9 -1.2,7.1 -3.5,9.4 -2.3,2.4 -5.4,3.7 -9.4,3.7 h -15 z m 0,-13.2 v -27.9 h -16.3 v 79.1 h 30.9 c 5.9,0 11.2,-1 15.6,-3.2 4.6,-2.2 8,-5.3 10.5,-9.3 2.4,-4 3.6,-8.6 3.6,-13.7 0,-7.7 -2.6,-13.9 -7.9,-18.3 -5.4,-4.5 -12.7,-6.7 -22.1,-6.7 h -14.3" /></g><g
           transform="scale(1.53434)"
           id="g216"><path
             inkscape:connector-curvature="0"
             id="path218"
             style="fill:#100f0d;fill-opacity:1;fill-rule:nonzero;stroke:none"
             d="m 16283.6,10151.2 c 0,8.2 -1.5,14.5 -4.5,18.8 -3,4.3 -7.2,6.4 -12.7,6.4 -5.4,0 -9.6,-2 -12.5,-6.3 -3,-4.3 -4.5,-10.5 -4.5,-18.6 v -3.9 c 0,-8 1.5,-14.3 4.4,-18.7 2.9,-4.5 7.2,-6.7 12.8,-6.7 5.4,0 9.6,2.2 12.5,6.5 2.9,4.2 4.4,10.5 4.5,18.6 z m 16.4,-3.6 c 0,-7.7 -1.4,-14.6 -4.1,-20.4 -2.7,-5.8 -6.7,-10.3 -11.8,-13.5 -5.1,-3.2 -11,-4.8 -17.5,-4.8 -6.6,0 -12.4,1.6 -17.5,4.7 -5.1,3.1 -9.1,7.6 -11.9,13.5 -2.8,5.8 -4.3,12.5 -4.3,20.1 v 3.9 c 0,7.7 1.4,14.5 4.2,20.5 2.8,5.8 6.7,10.4 11.9,13.5 5.1,3.2 10.9,4.8 17.4,4.8 6.6,0 12.4,-1.6 17.6,-4.8 5.1,-3.1 9,-7.7 11.8,-13.5 2.8,-6 4.2,-12.8 4.2,-20.4 v -3.6" /></g><g
           transform="scale(1.54112)"
           id="g220"><path
             inkscape:connector-curvature="0"
             id="path222"
             style="fill:#100f0d;fill-opacity:1;fill-rule:nonzero;stroke:none"
             d="m 16256.1,10106.2 h 14.4 c 4.3,0 7.6,1 9.8,3.1 2.3,2 3.4,4.8 3.4,8.6 0,3.8 -1.2,6.9 -3.4,9.3 -2.2,2.4 -5.3,3.6 -9.4,3.7 h -14.8 z m 0,-13 v -27.7 h -16.1 v 78.4 h 30.5 c 5.9,0 11.1,-1 15.6,-3.2 4.5,-2.2 7.9,-5.2 10.3,-9.2 2.4,-3.9 3.6,-8.5 3.6,-13.6 0,-7.6 -2.6,-13.7 -7.9,-18.1 -5.2,-4.4 -12.5,-6.6 -21.8,-6.6 h -14.2" /></g><g
           transform="scale(1.54801)"
           id="g224"><path
             inkscape:connector-curvature="0"
             id="path226"
             style="fill:#100f0d;fill-opacity:1;fill-rule:nonzero;stroke:none"
             d="m 16299.9,10046.7 c -0.6,-8.4 -3.7,-15 -9.3,-19.8 -5.6,-4.8 -13,-7.2 -22.1,-7.2 -10,0 -17.9,3.3 -23.7,10.1 -5.7,6.7 -8.6,16 -8.6,27.7 v 4.8 c 0,7.5 1.3,14.1 4,19.8 2.6,5.8 6.4,10.2 11.4,13.2 4.9,3 10.5,4.6 17.1,4.6 9,0 16.2,-2.4 21.7,-7.2 5.5,-4.9 8.8,-11.7 9.6,-20.4 h -16.1 c -0.4,5.1 -1.8,8.7 -4.2,11 -2.4,2.3 -6.1,3.4 -11,3.4 -5.4,0 -9.4,-1.9 -12,-5.8 -2.7,-3.8 -4.1,-9.8 -4.2,-17.8 v -6 c 0,-8.4 1.3,-14.6 3.9,-18.4 2.5,-3.9 6.6,-5.9 12.1,-5.9 4.9,0 8.6,1.1 11.1,3.4 2.4,2.3 3.9,5.8 4.2,10.5 h 16.1" /></g><g
           transform="scale(1.55509)"
           id="g228"><path
             inkscape:connector-curvature="0"
             id="path230"
             style="fill:#100f0d;fill-opacity:1;fill-rule:nonzero;stroke:none"
             d="m 16283.7,10015.7 c 0,8.1 -1.4,14.3 -4.3,18.6 -2.9,4.2 -7.1,6.3 -12.5,6.3 -5.4,0 -9.5,-2 -12.5,-6.2 -2.9,-4.3 -4.4,-10.4 -4.4,-18.4 v -3.8 c 0,-8 1.5,-14.14 4.4,-18.51 2.9,-4.38 7.1,-6.56 12.6,-6.56 5.3,0 9.5,2.12 12.4,6.36 2.9,4.18 4.3,10.31 4.3,18.41 z m 16.3,-3.5 c 0,-7.6 -1.4,-14.4 -4.1,-20.12 -2.7,-5.79 -6.6,-10.23 -11.6,-13.38 -5,-3.15 -10.8,-4.69 -17.3,-4.69 -6.5,0 -12.2,1.54 -17.3,4.63 -5,3.08 -8.9,7.52 -11.7,13.31 -2.8,5.72 -4.2,12.35 -4.2,19.85 v 3.8 c 0,7.7 1.4,14.4 4.1,20.2 2.7,5.8 6.7,10.3 11.7,13.4 5.1,3.1 10.8,4.7 17.3,4.7 6.5,0 12.2,-1.6 17.2,-4.7 5.1,-3.1 9,-7.6 11.7,-13.4 2.8,-5.8 4.2,-12.5 4.2,-20.1 v -3.5" /></g><g
           transform="scale(1.56198)"
           id="g232"><path
             inkscape:connector-curvature="0"
             id="path234"
             style="fill:#100f0d;fill-opacity:1;fill-rule:nonzero;stroke:none"
             d="m 16255.7,9972.37 h 12.8 c 4,0 7.1,1.03 9.4,3.08 2.1,1.98 3.2,4.8 3.2,8.38 0,3.65 -1,6.53 -3.1,8.65 -2.1,2.04 -5.2,3.13 -9.5,3.13 h -12.8 z m 12.7,-12.93 h -12.7 v -28.3 h -15.9 v 77.36 h 28.7 c 9.1,0 16.2,-2 21.1,-6.1 5,-4.1 7.5,-9.86 7.5,-17.29 0,-5.25 -1.2,-9.66 -3.4,-13.19 -2.3,-3.52 -5.8,-6.33 -10.5,-8.45 l 16.8,-31.62 v -0.71 h -17.1 l -14.5,28.3" /></g><g
           transform="scale(1.56888)"
           id="g236"><path
             inkscape:connector-curvature="0"
             id="path238"
             style="fill:#100f0d;fill-opacity:1;fill-rule:nonzero;stroke:none"
             d="m 16300,9887.41 h -15.9 l -30.8,50.68 v -50.68 h -15.9 v 77 h 15.9 l 30.9,-50.8 v 50.8 h 15.8 v -77" /></g><g
           transform="scale(1.47421)"
           id="g240"><path
             inkscape:connector-curvature="0"
             id="path242"
             style="fill:#100f0d;fill-opacity:1;fill-rule:nonzero;stroke:none"
             d="m 16256,10624.9 v -22.1 h 14.4 c 4,0 7.1,0.9 9.3,2.8 2.3,1.9 3.4,4.6 3.4,7.9 0,7.5 -3.9,11.3 -11.7,11.4 z m 0,11.9 h 12.5 c 8.5,0.2 12.7,3.6 12.7,10.3 0,3.6 -1.1,6.3 -3.2,8 -2.1,1.6 -5.5,2.4 -10.2,2.4 h -11.8 z m -16.9,-47.6 v 82 h 28.7 c 9.9,0 17.5,-1.9 22.6,-5.7 5.1,-3.8 7.7,-9.4 7.7,-16.8 0,-4 -1,-7.5 -3.1,-10.6 -2.1,-3 -4.9,-5.3 -8.6,-6.7 4.2,-1.1 7.6,-3.2 9.9,-6.4 2.5,-3.2 3.7,-7.1 3.7,-11.7 0,-7.9 -2.5,-13.9 -7.5,-17.9 -5.1,-4 -12.2,-6.1 -21.6,-6.2 h -31.8" /></g><g
           transform="scale(1.48168)"
           id="g244"><path
             inkscape:connector-curvature="0"
             id="path246"
             style="fill:#100f0d;fill-opacity:1;fill-rule:nonzero;stroke:none"
             d="m 16251.5,10566.2 h 20.4 l -10.2,30.5 z m 24.9,-13.6 h -29.4 l -5.6,-16.8 h -17.9 l 30.3,81.6 h 15.6 l 30.6,-81.6 h -17.9 l -5.7,16.8" /></g><g
           transform="scale(1.48842)"
           id="g248"><path
             inkscape:connector-curvature="0"
             id="path250"
             style="fill:#100f0d;fill-opacity:1;fill-rule:nonzero;stroke:none"
             d="m 16259.2,10520.7 -8.7,-9.4 v -23.2 h -16.7 v 81.2 h 16.7 v -36.8 l 7.4,10.1 20.7,26.7 h 20.5 l -28.8,-36 29.7,-45.2 h -20 l -20.8,32.6" /></g><g
           transform="scale(1.49396)"
           id="g252"><path
             inkscape:connector-curvature="0"
             id="path254"
             style="fill:#100f0d;fill-opacity:1;fill-rule:nonzero;stroke:none"
             d="m 16294.4,10484.3 h -32 v -21.7 h 37.6 v -13.4 h -54.2 v 80.9 h 54.1 v -13.5 h -37.5 v -19.3 h 32 v -13" /></g><g
           transform="scale(1.50053)"
           id="g256"><path
             inkscape:connector-curvature="0"
             id="path258"
             style="fill:#100f0d;fill-opacity:1;fill-rule:nonzero;stroke:none"
             d="m 16255,10470.6 v -53.8 h 8 c 6.5,0 11.5,2.1 14.9,6.4 3.4,4.2 5.2,10.3 5.2,18.2 v 4.3 c 0,8.1 -1.6,14.3 -5,18.6 -3.4,4.1 -8.4,6.3 -14.9,6.3 z m -16.6,-67.1 v 80.5 h 24.8 c 7.1,0 13.4,-1.6 19,-4.8 5.6,-3.2 9.9,-7.7 13.1,-13.5 3.1,-6 4.7,-12.6 4.7,-20.1 v -3.7 c 0,-7.5 -1.5,-14.2 -4.6,-20 -3.1,-5.8 -7.5,-10.4 -13.1,-13.6 -5.6,-3.2 -11.9,-4.8 -19,-4.8 h -24.9" /></g><g
           transform="scale(1.47121)"
           id="g260"><path
             inkscape:connector-curvature="0"
             id="path262"
             style="fill:#100f0d;fill-opacity:1;fill-rule:nonzero;stroke:none"
             d="m 16254.1,10519.5 h 15 c 4.5,0 8,1 10.3,3.1 2.4,2.1 3.5,5.2 3.5,9 0,4 -1.1,7.3 -3.5,9.8 -2.4,2.5 -5.6,3.8 -9.9,3.8 h -15.4 z m 0,-13.8 v -28.9 h -17 v 82.2 h 32 c 6.2,0 11.7,-1.2 16.4,-3.4 4.6,-2.3 8.2,-5.5 10.8,-9.6 2.5,-4.2 3.7,-8.9 3.7,-14.2 0,-8.1 -2.7,-14.4 -8.2,-19.1 -5.5,-4.6 -13.1,-7 -22.9,-7 h -14.8" /></g><g
           transform="scale(1.47836)"
           id="g264"><path
             inkscape:connector-curvature="0"
             id="path266"
             style="fill:#100f0d;fill-opacity:1;fill-rule:nonzero;stroke:none"
             d="m 16283,10468.9 c 0,8.6 -1.6,15.1 -4.6,19.6 -3.1,4.4 -7.5,6.7 -13.2,6.7 -5.6,0 -10,-2.3 -13.1,-6.7 -3,-4.4 -4.6,-10.8 -4.7,-19.3 v -4 c 0,-8.3 1.6,-14.8 4.6,-19.4 3.2,-4.6 7.6,-6.9 13.3,-6.9 5.7,0 10,2.2 13.1,6.6 3,4.5 4.5,10.9 4.6,19.4 z m 17,-3.7 c 0,-8 -1.4,-15.1 -4.3,-21.2 -2.8,-6 -6.9,-10.7 -12.1,-14 -5.4,-3.3 -11.4,-4.9 -18.3,-4.9 -6.8,0 -12.8,1.6 -18.1,4.9 -5.3,3.2 -9.4,7.9 -12.3,13.9 -3,6 -4.4,13 -4.5,20.9 v 4 c 0,8 1.4,15.1 4.3,21.3 2.9,6.1 7.1,10.8 12.3,14.1 5.3,3.2 11.4,4.8 18.2,4.8 6.8,0 12.9,-1.6 18.2,-4.8 5.2,-3.3 9.4,-8 12.3,-14.1 2.9,-6.2 4.3,-13.2 4.3,-21.2 v -3.7" /></g><g
           transform="scale(1.48461)"
           id="g268"><path
             inkscape:connector-curvature="0"
             id="path270"
             style="fill:#100f0d;fill-opacity:1;fill-rule:nonzero;stroke:none"
             d="m 16300,10450.1 h -24.9 v -67.9 h -16.8 v 67.9 h -24.6 v 13.6 h 66.3 v -13.6" /></g><g
           transform="scale(1.4912)"
           id="g272"><path
             inkscape:connector-curvature="0"
             id="path274"
             style="fill:#100f0d;fill-opacity:1;fill-rule:nonzero;stroke:none"
             d="m 16251.8,10366.6 h 20.3 l -10.2,30.3 z m 24.8,-13.5 h -29.2 l -5.6,-16.7 h -17.8 l 30.2,81 h 15.4 l 30.4,-81 h -17.8 l -5.6,16.7" /></g><g
           transform="scale(1.49686)"
           id="g276"><path
             inkscape:connector-curvature="0"
             id="path278"
             style="fill:#100f0d;fill-opacity:1;fill-rule:nonzero;stroke:none"
             d="m 16300,10364.5 h -24.7 v -67.2 h -16.7 v 67.2 h -24.4 v 13.5 h 65.8 v -13.5" /></g><g
           transform="scale(1.50368)"
           id="g280"><path
             inkscape:connector-curvature="0"
             id="path282"
             style="fill:#100f0d;fill-opacity:1;fill-rule:nonzero;stroke:none"
             d="m 16283.2,10292.6 c 0,8.5 -1.5,14.8 -4.5,19.2 -3,4.4 -7.3,6.6 -12.9,6.6 -5.6,0 -9.8,-2.2 -12.9,-6.5 -3,-4.3 -4.5,-10.6 -4.6,-19 v -3.9 c 0,-8.2 1.6,-14.6 4.6,-19.1 3,-4.6 7.3,-6.8 13,-6.8 5.6,0 9.8,2.2 12.8,6.5 3,4.4 4.5,10.7 4.5,19.1 z m 16.8,-3.6 c 0,-8 -1.4,-14.9 -4.2,-20.9 -2.8,-5.9 -6.8,-10.5 -12,-13.7 -5.2,-3.3 -11.1,-4.9 -17.9,-4.9 -6.7,0 -12.6,1.6 -17.8,4.8 -5.2,3.2 -9.3,7.8 -12.1,13.7 -3,5.9 -4.4,12.8 -4.4,20.6 v 3.9 c 0,7.9 1.4,14.9 4.2,20.9 2.9,6 6.9,10.6 12.1,13.9 5.2,3.1 11.2,4.7 17.9,4.7 6.7,0 12.7,-1.6 17.8,-4.7 5.3,-3.3 9.3,-7.9 12.1,-13.9 2.9,-6 4.3,-12.9 4.3,-20.9 v -3.5" /></g><g
           transform="scale(1.41061)"
           id="g284"><path
             inkscape:connector-curvature="0"
             id="path286"
             style="fill:#100f0d;fill-opacity:1;fill-rule:nonzero;stroke:none"
             d="m 16250.9,10414 h 14.3 c 4.5,0 7.9,1.2 10.3,3.4 2.5,2.3 3.7,5.4 3.7,9.4 0,4 -1.2,7.2 -3.5,9.5 -2.3,2.3 -5.8,3.5 -10.6,3.5 h -14.2 z m 14.2,-14.2 h -14.2 v -31.4 h -17.6 v 85.7 h 31.8 c 10.2,0 18,-2.3 23.5,-6.8 5.4,-4.5 8.2,-10.9 8.2,-19.1 0,-5.9 -1.3,-10.8 -3.8,-14.7 -2.5,-3.9 -6.3,-7 -11.5,-9.3 l 18.5,-35 v -0.8 h -18.9 l -16,31.4" /></g><g
           transform="scale(1.41646)"
           id="g288"><path
             inkscape:connector-curvature="0"
             id="path290"
             style="fill:#100f0d;fill-opacity:1;fill-rule:nonzero;stroke:none"
             d="m 16294.1,10362.5 h -33.7 v -22.9 h 39.6 v -14.1 h -57.2 v 85.4 h 57.1 v -14.3 h -39.5 v -20.3 h 33.7 v -13.8" /></g><g
           transform="scale(1.42339)"
           id="g292"><path
             inkscape:connector-curvature="0"
             id="path294"
             style="fill:#100f0d;fill-opacity:1;fill-rule:nonzero;stroke:none"
             d="m 16300,10275.2 h -17.5 v 36.4 h -34.1 v -36.4 h -17.5 v 85 h 17.5 v -34.4 h 34.1 v 34.4 h 17.5 v -85" /></g><g
           transform="scale(1.4297)"
           id="g296"><path
             inkscape:connector-curvature="0"
             id="path298"
             style="fill:#100f0d;fill-opacity:1;fill-rule:nonzero;stroke:none"
             d="m 16294.2,10266.6 h -33.4 v -22.7 h 39.2 v -14 h -56.7 v 84.6 h 56.6 v -14.2 h -39.1 v -20.1 h 33.4 v -13.6" /></g><g
           transform="scale(1.43692)"
           id="g300"><path
             inkscape:connector-curvature="0"
             id="path302"
             style="fill:#100f0d;fill-opacity:1;fill-rule:nonzero;stroke:none"
             d="m 16250,10209.9 h 21 l -10.5,31.4 z m 25.7,-14.1 h -30.3 l -5.8,-17.3 h -18.4 l 31.3,84.1 h 16 l 31.5,-84.1 h -18.4 l -5.9,17.3" /></g><g
           transform="scale(1.44258)"
           id="g304"><path
             inkscape:connector-curvature="0"
             id="path306"
             style="fill:#100f0d;fill-opacity:1;fill-rule:nonzero;stroke:none"
             d="m 16300,10208.4 h -25.6 v -69.9 h -17.3 v 69.9 h -25.4 v 14 h 68.3 v -14" /></g><g
           transform="scale(1.4648)"
           id="g308"><path
             inkscape:connector-curvature="0"
             id="path310"
             style="fill:#100f0d;fill-opacity:1;fill-rule:nonzero;stroke:none"
             d="m 16255.7,10020.7 v -22.3 h 14.5 c 4.1,0 7.2,0.96 9.5,2.9 2.1,1.9 3.3,4.5 3.3,7.9 0,7.6 -3.9,11.4 -11.7,11.5 z m 0,12 h 12.6 c 8.6,0.2 12.9,3.6 12.9,10.3 0,3.7 -1.1,6.4 -3.3,8 -2.2,1.7 -5.6,2.5 -10.3,2.5 h -11.9 z m -17,-47.95 v 82.55 h 28.9 c 10,0 17.6,-1.9 22.8,-5.7 5.2,-3.9 7.8,-9.5 7.8,-16.9 0,-4.1 -1.1,-7.7 -3.2,-10.7 -2.1,-3.1 -5,-5.4 -8.7,-6.8 4.3,-1.1 7.6,-3.2 10,-6.4 2.5,-3.2 3.7,-7.1 3.7,-11.8 0,-7.9 -2.5,-13.94 -7.6,-17.97 -5,-4.09 -12.3,-6.21 -21.6,-6.28 h -32.1" /></g><g
           transform="scale(1.47092)"
           id="g312"><path
             inkscape:connector-curvature="0"
             id="path314"
             style="fill:#100f0d;fill-opacity:1;fill-rule:nonzero;stroke:none"
             d="m 16294.4,9978.86 h -32.5 v -22.03 h 38.1 v -13.6 h -55.1 v 82.17 h 55 v -13.7 h -38 v -19.59 h 32.5 v -13.25" /></g><g
           transform="scale(1.47794)"
           id="g316"><path
             inkscape:connector-curvature="0"
             id="path318"
             style="fill:#100f0d;fill-opacity:1;fill-rule:nonzero;stroke:none"
             d="m 16262.7,9916.31 18.6,61.51 h 18.7 l -28.5,-81.81 h -17.6 l -28.3,81.81 h 18.6 l 18.5,-61.51" /></g><g
           transform="scale(1.48361)"
           id="g320"><path
             inkscape:connector-curvature="0"
             id="path322"
             style="fill:#100f0d;fill-opacity:1;fill-rule:nonzero;stroke:none"
             d="m 16294.4,9893.52 h -32.2 v -21.84 h 37.8 v -13.48 h -54.7 v 81.49 h 54.6 v -13.61 h -37.7 v -19.42 h 32.2 v -13.14" /></g><g
           transform="scale(1.49028)"
           id="g324"><path
             inkscape:connector-curvature="0"
             id="path326"
             style="fill:#100f0d;fill-opacity:1;fill-rule:nonzero;stroke:none"
             d="m 16253.6,9857.3 h 13.5 c 4.1,0 7.4,1.07 9.7,3.22 2.3,2.15 3.4,5.1 3.4,8.86 0,3.82 -1.1,6.84 -3.2,8.99 -2.2,2.22 -5.5,3.29 -10,3.29 h -13.4 z m 13.3,-13.49 h -13.3 v -29.72 h -16.7 v 81.12 h 30.1 c 9.6,0 17,-2.14 22.1,-6.44 5.3,-4.23 7.8,-10.27 7.8,-18.05 0,-5.57 -1.1,-10.2 -3.5,-13.89 -2.5,-3.69 -6.1,-6.64 -10.9,-8.79 l 17.5,-33.15 v -0.8 h -17.9 l -15.2,29.72" /></g><g
           transform="scale(1.49748)"
           id="g328"><path
             inkscape:connector-curvature="0"
             id="path330"
             style="fill:#100f0d;fill-opacity:1;fill-rule:nonzero;stroke:none"
             d="m 16252.1,9796.96 h 20.1 l -10.1,30.19 z m 24.6,-13.49 h -29.2 l -5.5,-16.63 h -17.7 l 30.1,80.74 h 15.4 l 30.2,-80.74 h -17.7 l -5.6,16.63" /></g><g
           transform="scale(1.50393)"
           id="g332"><path
             inkscape:connector-curvature="0"
             id="path334"
             style="fill:#100f0d;fill-opacity:1;fill-rule:nonzero;stroke:none"
             d="m 16300,9735.14 c -2.9,-3.59 -7.2,-6.31 -12.6,-8.31 -5.5,-1.99 -11.5,-2.92 -18.1,-2.92 -6.9,0 -13.1,1.46 -18.3,4.52 -5.3,3.06 -9.3,7.45 -12.2,13.23 -2.8,5.78 -4.3,12.57 -4.4,20.35 v 5.45 c 0,8.04 1.4,14.96 4.1,20.88 2.7,5.85 6.6,10.3 11.7,13.43 5.1,3.12 11.1,4.65 18,4.65 9.5,0 16.9,-2.26 22.3,-6.78 5.4,-4.52 8.5,-11.17 9.5,-19.88 h -16.1 c -0.7,4.66 -2.4,7.98 -4.8,10.11 -2.6,2.19 -6,3.25 -10.5,3.25 -5.6,0 -9.9,-2.12 -12.8,-6.38 -3,-4.25 -4.5,-10.5 -4.5,-18.88 v -5.12 c 0,-8.45 1.6,-14.76 4.8,-19.08 3.2,-4.33 7.9,-6.45 14,-6.45 6.3,0 10.7,1.33 13.3,3.92 v 13.89 h -15 v 12.17 h 31.6 v -32.05" /></g><g
           transform="scale(1.51014)"
           id="g336"><path
             inkscape:connector-curvature="0"
             id="path338"
             style="fill:#100f0d;fill-opacity:1;fill-rule:nonzero;stroke:none"
             d="m 16294.5,9719.69 h -31.6 v -21.46 h 37.1 v -13.24 h -53.6 v 80.06 h 53.5 v -13.38 h -37 v -19.07 h 31.6 v -12.91" /></g><g
           transform="scale(1.5312)"
           id="g340"><path
             inkscape:connector-curvature="0"
             id="path342"
             style="fill:#100f0d;fill-opacity:1;fill-rule:nonzero;stroke:none"
             d="m 16296.1,9648.47 h -31.2 v -32.26 h -16.3 v 78.89 h 51.4 v -13.13 h -35.1 v -20.44 h 31.2 v -13.06" /></g><g
           transform="scale(1.53785)"
           id="g344"><path
             inkscape:connector-curvature="0"
             id="path346"
             style="fill:#100f0d;fill-opacity:1;fill-rule:nonzero;stroke:none"
             d="m 16255,9616.46 h 13.1 c 4.1,0 7.2,1.04 9.4,3.12 2.3,2.02 3.4,4.88 3.4,8.52 0,3.71 -1.1,6.63 -3.2,8.78 -2.1,2.08 -5.3,3.18 -9.7,3.18 h -13 z m 12.9,-13.13 h -12.9 v -28.75 h -16.2 v 78.56 h 29.2 c 9.3,0 16.5,-2.09 21.5,-6.18 5,-4.16 7.6,-10.02 7.6,-17.56 0,-5.33 -1.2,-9.82 -3.5,-13.39 -2.3,-3.58 -5.9,-6.44 -10.6,-8.59 l 17,-32.12 v -0.72 h -17.4 l -14.7,28.75" /></g><g
           transform="scale(1.54483)"
           id="g348"><path
             inkscape:connector-curvature="0"
             id="path350"
             style="fill:#100f0d;fill-opacity:1;fill-rule:nonzero;stroke:none"
             d="m 16283.6,9572.2 c 0,8.22 -1.4,14.43 -4.4,18.7 -2.9,4.28 -7.1,6.41 -12.5,6.41 -5.4,0 -9.6,-2.13 -12.5,-6.34 -3,-4.21 -4.5,-10.36 -4.5,-18.51 v -3.76 c 0,-8.03 1.5,-14.24 4.4,-18.64 2.9,-4.4 7.2,-6.61 12.7,-6.61 5.4,0 9.6,2.14 12.4,6.41 2.9,4.21 4.4,10.43 4.4,18.52 z m 16.4,-3.5 c 0,-7.7 -1.4,-14.5 -4.1,-20.26 -2.7,-5.83 -6.6,-10.29 -11.7,-13.46 -5,-3.18 -10.9,-4.73 -17.4,-4.73 -6.5,0 -12.3,1.55 -17.4,4.66 -5.1,3.11 -9,7.57 -11.8,13.4 -2.8,5.76 -4.2,12.43 -4.2,19.94 v 3.88 c 0,7.7 1.3,14.44 4.1,20.33 2.8,5.82 6.7,10.35 11.8,13.46 5.1,3.17 10.9,4.73 17.4,4.73 6.5,0 12.3,-1.56 17.4,-4.73 5,-3.11 9,-7.64 11.7,-13.46 2.8,-5.89 4.2,-12.63 4.2,-20.33 v -3.43" /></g><g
           transform="scale(1.55118)"
           id="g352"><path
             inkscape:connector-curvature="0"
             id="path354"
             style="fill:#100f0d;fill-opacity:1;fill-rule:nonzero;stroke:none"
             d="m 16260.7,9505.23 h 39.3 v -12.89 h -59.4 v 9.41 l 38.6,55.5 h -38.5 v 12.96 h 58.5 v -9.22 l -38.5,-55.76" /></g><g
           transform="scale(1.55711)"
           id="g356"><path
             inkscape:connector-curvature="0"
             id="path358"
             style="fill:#100f0d;fill-opacity:1;fill-rule:nonzero;stroke:none"
             d="m 16294.7,9489.76 h -30.7 v -20.75 h 36 v -12.84 h -52 v 77.58 h 51.9 v -12.91 h -35.9 v -18.56 h 30.7 v -12.52" /></g><g
           transform="scale(1.56404)"
           id="g360"><path
             inkscape:connector-curvature="0"
             id="path362"
             style="fill:#100f0d;fill-opacity:1;fill-rule:nonzero;stroke:none"
             d="m 16300,9414.29 h -15.9 l -31,50.83 v -50.83 h -16 v 77.24 h 16 l 31,-50.96 v 50.96 h 15.9 v -77.24" /></g><g
           transform="scale(1.533)"
           id="g364"><path
             inkscape:connector-curvature="0"
             id="path366"
             style="fill:#100f0d;fill-opacity:1;fill-rule:nonzero;stroke:none"
             d="m 16256,9542.01 v -52.64 h 7.9 c 6.3,0 11.2,2.09 14.5,6.19 3.4,4.18 5.1,10.11 5.2,17.81 v 4.18 c 0,8.02 -1.7,14.09 -5,18.26 -3.3,4.11 -8.2,6.2 -14.6,6.2 z m -16.3,-65.69 v 78.8 h 24.3 c 7,0 13.2,-1.56 18.6,-4.63 5.5,-3.13 9.8,-7.57 12.8,-13.37 3.1,-5.74 4.6,-12.27 4.6,-19.57 v -3.66 c 0,-7.3 -1.5,-13.82 -4.5,-19.57 -3,-5.67 -7.2,-10.11 -12.7,-13.24 -5.6,-3.13 -11.7,-4.76 -18.6,-4.76 h -24.5" /></g><g
           transform="scale(1.53574)"
           id="g368"><path
             inkscape:connector-curvature="0"
             id="path370"
             style="fill:#100f0d;fill-opacity:1;fill-rule:nonzero;stroke:none"
             d="m 16300,9459.44 h -16.2 v 78.66 h 16.2 v -78.66" /></g><g
           transform="scale(1.54318)"
           id="g372"><path
             inkscape:connector-curvature="0"
             id="path374"
             style="fill:#100f0d;fill-opacity:1;fill-rule:nonzero;stroke:none"
             d="m 16300,9413.78 h -16.1 l -31.5,51.52 v -51.52 h -16.1 v 78.28 h 16.1 l 31.5,-51.58 v 51.58 h 16.1 v -78.28" /></g><g
           transform="scale(1.55055)"
           id="g376"><path
             inkscape:connector-curvature="0"
             id="path378"
             style="fill:#100f0d;fill-opacity:1;fill-rule:nonzero;stroke:none"
             d="m 16300,9369.09 h -16.1 l -31.2,51.27 v -51.27 h -16.1 V 9447 h 16.1 l 31.3,-51.34 V 9447 h 16 v -77.91" /></g><g
           transform="scale(1.55685)"
           id="g380"><path
             inkscape:connector-curvature="0"
             id="path382"
             style="fill:#100f0d;fill-opacity:1;fill-rule:nonzero;stroke:none"
             d="m 16294.7,9364.79 h -30.7 v -20.81 h 36 v -12.85 h -52 v 77.6 h 51.9 v -12.91 h -35.9 v -18.5 h 30.7 v -12.53" /></g><g
           transform="scale(1.56352)"
           id="g384"><path
             inkscape:connector-curvature="0"
             id="path386"
             style="fill:#100f0d;fill-opacity:1;fill-rule:nonzero;stroke:none"
             d="m 16255.7,9332.52 h 12.9 c 4,0 7.1,1.02 9.3,3.07 2.1,2.05 3.2,4.8 3.2,8.38 0,3.65 -1,6.52 -3,8.63 -2.1,2.05 -5.3,3.14 -9.6,3.14 h -12.8 z m 12.7,-12.92 h -12.7 v -28.27 h -15.9 v 77.26 h 28.7 c 9.2,0 16.2,-1.98 21.1,-6.07 5,-4.09 7.5,-9.85 7.5,-17.27 0,-5.24 -1.1,-9.66 -3.4,-13.18 -2.3,-3.51 -5.8,-6.33 -10.4,-8.44 l 16.7,-31.59 v -0.71 h -17.1 l -14.5,28.27" /></g><g
           transform="scale(1.53526)"
           id="g388"><path
             inkscape:connector-curvature="0"
             id="path390"
             style="fill:#100f0d;fill-opacity:1;fill-rule:nonzero;stroke:none"
             d="m 16299.9,8959.54 c -0.6,-8.47 -3.7,-15.11 -9.3,-20 -5.7,-4.82 -13.1,-7.29 -22.4,-7.29 -10.1,0 -18,3.38 -23.8,10.22 -5.8,6.78 -8.7,16.09 -8.7,27.95 v 4.82 c 0,7.55 1.4,14.26 4,19.99 2.7,5.8 6.5,10.23 11.4,13.29 5.1,3.06 10.8,4.63 17.4,4.63 9,0 16.3,-2.41 21.9,-7.3 5.6,-4.88 8.8,-11.72 9.6,-20.52 h -16.2 c -0.4,5.08 -1.8,8.8 -4.3,11.08 -2.4,2.28 -6.1,3.45 -11,3.45 -5.4,0 -9.5,-1.96 -12.2,-5.8 -2.7,-3.91 -4,-9.9 -4.1,-18.04 v -5.99 c 0,-8.47 1.3,-14.73 3.8,-18.63 2.6,-3.91 6.7,-5.87 12.2,-5.87 5,0 8.8,1.11 11.3,3.39 2.4,2.28 3.8,5.87 4.2,10.62 h 16.2" /></g><g
           transform="scale(1.54102)"
           id="g392"><path
             inkscape:connector-curvature="0"
             id="path394"
             style="fill:#100f0d;fill-opacity:1;fill-rule:nonzero;stroke:none"
             d="m 16265.7,8912.9 h 34.3 v -12.98 h -50.5 v 78.39 h 16.2 v -65.41" /></g><g
           transform="scale(1.54767)"
           id="g396"><path
             inkscape:connector-curvature="0"
             id="path398"
             style="fill:#100f0d;fill-opacity:1;fill-rule:nonzero;stroke:none"
             d="m 16283.7,8902.55 c 0,8.14 -1.5,14.41 -4.4,18.61 -2.9,4.27 -7.1,6.4 -12.6,6.4 -5.4,0 -9.5,-2.07 -12.4,-6.27 -3,-4.2 -4.5,-10.4 -4.5,-18.48 V 8899 c 0,-8.01 1.4,-14.15 4.4,-18.55 2.9,-4.45 7.1,-6.65 12.7,-6.65 5.3,0 9.5,2.13 12.4,6.4 2.9,4.2 4.4,10.4 4.4,18.54 z m 16.3,-3.55 c 0,-7.69 -1.4,-14.41 -4.1,-20.22 -2.7,-5.82 -6.6,-10.28 -11.7,-13.44 -5,-3.11 -10.8,-4.72 -17.3,-4.72 -6.6,0 -12.3,1.55 -17.4,4.65 -5.1,3.17 -9,7.56 -11.8,13.37 -2.8,5.76 -4.2,12.41 -4.3,19.91 v 3.87 c 0,7.69 1.5,14.48 4.2,20.29 2.8,5.88 6.7,10.34 11.7,13.44 5.1,3.17 10.9,4.72 17.4,4.72 6.6,0 12.3,-1.55 17.4,-4.72 5,-3.1 8.9,-7.56 11.7,-13.44 2.8,-5.81 4.2,-12.6 4.2,-20.22 V 8899" /></g><g
           transform="scale(1.55461)"
           id="g400"><path
             inkscape:connector-curvature="0"
             id="path402"
             style="fill:#100f0d;fill-opacity:1;fill-rule:nonzero;stroke:none"
             d="m 16299.9,8848.02 c -0.6,-8.36 -3.7,-14.92 -9.3,-19.75 -5.5,-4.76 -12.9,-7.2 -22,-7.2 -10,0 -17.8,3.34 -23.5,10.1 -5.8,6.69 -8.6,15.89 -8.6,27.59 v 4.76 c 0,7.46 1.3,14.09 3.9,19.75 2.7,5.73 6.5,10.1 11.4,13.12 4.8,3.03 10.6,4.57 17,4.57 9,0 16.2,-2.38 21.7,-7.2 5.4,-4.83 8.7,-11.58 9.5,-20.27 h -16 c -0.4,5.02 -1.8,8.69 -4.2,10.94 -2.4,2.25 -6,3.41 -11,3.41 -5.3,0 -9.3,-1.93 -12,-5.73 -2.6,-3.86 -4,-9.77 -4.1,-17.81 v -5.92 c 0,-8.36 1.3,-14.54 3.9,-18.4 2.5,-3.86 6.5,-5.79 12,-5.79 5,0 8.6,1.1 11.1,3.35 2.4,2.25 3.8,5.79 4.2,10.48 h 16" /></g><g
           transform="scale(1.56164)"
           id="g404"><path
             inkscape:connector-curvature="0"
             id="path406"
             style="fill:#100f0d;fill-opacity:1;fill-rule:nonzero;stroke:none"
             d="m 16261.1,8813.47 -8.2,-8.97 v -22.09 h -16 v 77.36 h 16 v -35.03 l 7,9.6 19.7,25.43 h 19.6 l -27.4,-34.39 28.2,-42.97 h -19 l -19.9,31.06" /></g><g
           transform="scale(1.41733)"
           id="g408"><path
             inkscape:connector-curvature="0"
             id="path410"
             style="fill:#100f0d;fill-opacity:1;fill-rule:nonzero;stroke:none"
             d="m 16300,9817.18 h -26.1 v -71.05 h -17.6 v 71.05 h -25.8 v 14.25 h 69.5 v -14.25" /></g><g
           transform="scale(1.41983)"
           id="g412"><path
             inkscape:connector-curvature="0"
             id="path414"
             style="fill:#100f0d;fill-opacity:1;fill-rule:nonzero;stroke:none"
             d="m 16300,9728.99 h -17.5 v 85.15 h 17.5 v -85.15" /></g><g
           transform="scale(1.42904)"
           id="g416"><path
             inkscape:connector-curvature="0"
             id="path418"
             style="fill:#100f0d;fill-opacity:1;fill-rule:nonzero;stroke:none"
             d="m 16233.8,9750.86 21.7,-61.37 21.6,61.37 h 22.9 v -84.6 h -17.5 v 23.16 l 1.8,39.89 -22.9,-63.05 h -11.9 l -22.8,62.98 1.7,-39.82 v -23.16 h -17.4 v 84.6 h 22.8" /></g><g
           transform="scale(1.43535)"
           id="g420"><path
             inkscape:connector-curvature="0"
             id="path422"
             style="fill:#100f0d;fill-opacity:1;fill-rule:nonzero;stroke:none"
             d="m 16294.2,9660.29 h -33.3 v -22.57 h 39.1 v -13.93 h -56.4 v 84.22 h 56.3 v -14.07 h -39 v -20.06 h 33.3 v -13.59" /></g><g
           transform="scale(1.4159)"
           id="g424"><path
             inkscape:connector-curvature="0"
             id="path426"
             style="fill:#100f0d;fill-opacity:1;fill-rule:nonzero;stroke:none"
             d="m 16299.9,9645.23 c -0.7,-9.18 -4.1,-16.38 -10.1,-21.68 -6.2,-5.3 -14.2,-7.91 -24.3,-7.91 -10.9,0 -19.5,3.67 -25.7,11.02 -6.3,7.41 -9.5,17.51 -9.5,30.36 v 5.23 c 0,8.2 1.5,15.4 4.4,21.68 2.9,6.29 7,11.02 12.3,14.41 5.4,3.32 11.7,5.02 18.8,5.02 9.8,0 17.7,-2.69 23.8,-7.91 6,-5.3 9.5,-12.72 10.4,-22.25 h -17.6 c -0.4,5.51 -1.9,9.53 -4.6,12.01 -2.6,2.47 -6.6,3.67 -12,3.67 -5.8,0 -10.3,-2.05 -13.2,-6.29 -2.9,-4.16 -4.4,-10.66 -4.4,-19.56 v -6.43 c 0,-9.25 1.3,-15.96 4.1,-20.2 2.9,-4.3 7.2,-6.42 13.2,-6.42 5.5,0 9.6,1.27 12.2,3.74 2.7,2.47 4.2,6.29 4.6,11.51 h 17.6" /></g><g
           transform="scale(1.42299)"
           id="g428"><path
             inkscape:connector-curvature="0"
             id="path430"
             style="fill:#100f0d;fill-opacity:1;fill-rule:nonzero;stroke:none"
             d="m 16282.3,9613.3 c 0,8.92 -1.6,15.66 -4.8,20.3 -3.2,4.64 -7.7,6.96 -13.7,6.96 -5.8,0 -10.4,-2.32 -13.6,-6.88 -3.1,-4.57 -4.7,-11.25 -4.8,-20.1 v -4.15 c 0,-8.64 1.6,-15.39 4.8,-20.17 3.1,-4.78 7.8,-7.17 13.8,-7.17 5.9,0 10.4,2.32 13.5,6.89 3.1,4.64 4.7,11.38 4.8,20.17 z m 17.7,-3.87 c 0,-8.36 -1.5,-15.67 -4.4,-22 -3,-6.25 -7.2,-11.1 -12.7,-14.54 -5.5,-3.45 -11.9,-5.13 -18.9,-5.13 -7.1,0 -13.3,1.68 -18.9,5.06 -5.5,3.37 -9.8,8.22 -12.8,14.47 -3.1,6.33 -4.6,13.56 -4.6,21.72 v 4.21 c 0,8.3 1.5,15.68 4.5,22.07 3,6.33 7.2,11.24 12.8,14.62 5.5,3.37 11.8,5.13 18.8,5.13 7.1,0 13.4,-1.76 18.9,-5.13 5.5,-3.38 9.8,-8.29 12.8,-14.62 3,-6.39 4.5,-13.7 4.5,-22.07 v -3.79" /></g><g
           transform="scale(1.43019)"
           id="g432"><path
             inkscape:connector-curvature="0"
             id="path434"
             style="fill:#100f0d;fill-opacity:1;fill-rule:nonzero;stroke:none"
             d="m 16282.3,9564.88 c 0,8.88 -1.5,15.59 -4.7,20.21 -3.2,4.61 -7.7,6.92 -13.6,6.92 -5.8,0 -10.4,-2.31 -13.5,-6.85 -3.2,-4.55 -4.8,-11.19 -4.8,-20 v -4.12 c 0,-8.6 1.6,-15.32 4.7,-20.07 3.2,-4.76 7.8,-7.13 13.7,-7.13 5.8,0 10.4,2.3 13.5,6.85 3.1,4.61 4.7,11.32 4.7,20.06 z m 17.7,-3.84 c 0,-8.33 -1.5,-15.6 -4.4,-21.89 -2.9,-6.22 -7.2,-11.05 -12.7,-14.47 -5.4,-3.43 -11.7,-5.11 -18.8,-5.11 -7,0 -13.3,1.68 -18.7,5.04 -5.5,3.35 -9.8,8.18 -12.8,14.4 -3,6.29 -4.6,13.49 -4.6,21.61 v 4.19 c 0,8.25 1.5,15.59 4.5,21.95 3,6.3 7.2,11.19 12.8,14.55 5.4,3.36 11.6,5.1 18.7,5.1 7.1,0 13.3,-1.74 18.8,-5.1 5.5,-3.36 9.7,-8.25 12.7,-14.55 3,-6.36 4.5,-13.63 4.5,-21.95 v -3.77" /></g><g
           transform="scale(1.43734)"
           id="g436"><path
             inkscape:connector-curvature="0"
             id="path438"
             style="fill:#100f0d;fill-opacity:1;fill-rule:nonzero;stroke:none"
             d="m 16257.8,9507.05 -9,-9.67 v -24.07 h -17.3 v 84.11 h 17.3 v -38.12 l 7.6,10.43 21.4,27.69 h 21.4 l -29.9,-37.36 30.7,-46.75 h -20.6 l -21.6,33.74" /></g><g
           transform="scale(1.46959)"
           id="g440"><path
             inkscape:connector-curvature="0"
             id="path442"
             style="fill:#100f0d;fill-opacity:1;fill-rule:nonzero;stroke:none"
             d="m 16258.7,9432.57 -8.8,-9.46 v -23.54 h -16.9 v 82.26 h 16.9 v -37.28 l 7.4,10.2 21,27.08 h 20.8 l -29.2,-36.54 30.1,-45.72 h -20.1 l -21.2,33" /></g><g
           transform="scale(1.47179)"
           id="g444"><path
             inkscape:connector-curvature="0"
             id="path446"
             style="fill:#100f0d;fill-opacity:1;fill-rule:nonzero;stroke:none"
             d="m 16300,9385.54 h -16.9 v 82.14 h 16.9 v -82.14" /></g><g
           transform="scale(1.47864)"
           id="g448"><path
             inkscape:connector-curvature="0"
             id="path450"
             style="fill:#100f0d;fill-opacity:1;fill-rule:nonzero;stroke:none"
             d="m 16300,9410.15 h -25 v -68.11 h -16.9 v 68.11 h -24.7 v 13.66 h 66.6 v -13.66" /></g><g
           transform="scale(1.4852)"
           id="g452"><path
             inkscape:connector-curvature="0"
             id="path454"
             style="fill:#100f0d;fill-opacity:1;fill-rule:nonzero;stroke:none"
             d="m 16299.9,9327.92 c -0.6,-8.75 -3.9,-15.68 -9.7,-20.67 -5.8,-5.05 -13.5,-7.54 -23.1,-7.54 -10.4,0 -18.6,3.5 -24.6,10.51 -5.9,7 -9,16.69 -9,28.95 v 4.98 c 0,7.81 1.5,14.68 4.2,20.67 2.8,5.93 6.7,10.5 11.8,13.67 5.1,3.23 11.1,4.78 17.8,4.78 9.5,0 17,-2.49 22.7,-7.54 5.8,-4.98 9.1,-12.05 10,-21.14 h -16.8 c -0.4,5.25 -1.9,9.02 -4.3,11.45 -2.5,2.35 -6.4,3.5 -11.6,3.5 -5.5,0 -9.7,-2.02 -12.5,-6 -2.7,-3.97 -4.2,-10.23 -4.2,-18.65 v -6.12 c 0,-8.83 1.3,-15.22 4,-19.33 2.6,-4.04 6.8,-6.06 12.5,-6.06 5.2,0 9.1,1.21 11.6,3.57 2.6,2.36 4.1,5.99 4.4,10.97 h 16.8" /></g><g
           transform="scale(1.49223)"
           id="g456"><path
             inkscape:connector-curvature="0"
             id="path458"
             style="fill:#100f0d;fill-opacity:1;fill-rule:nonzero;stroke:none"
             d="m 16300,9256.97 h -16.7 v 34.71 h -32.6 v -34.71 h -16.6 v 81.02 h 16.6 v -32.84 h 32.6 v 32.84 h 16.7 v -81.02" /></g><g
           transform="scale(1.49853)"
           id="g460"><path
             inkscape:connector-curvature="0"
             id="path462"
             style="fill:#100f0d;fill-opacity:1;fill-rule:nonzero;stroke:none"
             d="m 16294.5,9253.01 h -31.9 v -21.62 h 37.4 v -13.34 h -54.1 v 80.68 h 54 v -13.48 h -37.3 v -19.22 h 31.9 v -13.02" /></g><g
           transform="scale(1.50545)"
           id="g464"><path
             inkscape:connector-curvature="0"
             id="path466"
             style="fill:#100f0d;fill-opacity:1;fill-rule:nonzero;stroke:none"
             d="m 16300,9175.64 h -16.5 l -32.3,52.81 v -52.81 h -16.5 v 80.3 h 16.5 l 32.3,-52.94 v 52.94 h 16.5 v -80.3" /></g><g
           transform="scale(1.47517)"
           id="g468"><path
             inkscape:connector-curvature="0"
             id="path470"
             style="fill:#100f0d;fill-opacity:1;fill-rule:nonzero;stroke:none"
             d="m 16300,9298.65 h -25.1 v -68.27 h -16.9 v 68.27 h -24.7 v 13.69 h 66.7 v -13.69" /></g><g
           transform="scale(1.47767)"
           id="g472"><path
             inkscape:connector-curvature="0"
             id="path474"
             style="fill:#100f0d;fill-opacity:1;fill-rule:nonzero;stroke:none"
             d="m 16300,9214.79 h -16.9 v 81.81 h 16.9 v -81.81" /></g><g
           transform="scale(1.48688)"
           id="g476"><path
             inkscape:connector-curvature="0"
             id="path478"
             style="fill:#100f0d;fill-opacity:1;fill-rule:nonzero;stroke:none"
             d="m 16236.4,9238.99 20.8,-58.98 20.8,58.98 h 22 v -81.31 h -16.7 v 22.26 l 1.6,38.33 -22,-60.59 h -11.5 l -21.8,60.53 1.7,-38.27 v -22.26 h -16.8 v 81.31 h 21.9" /></g><g
           transform="scale(1.49319)"
           id="g480"><path
             inkscape:connector-curvature="0"
             id="path482"
             style="fill:#100f0d;fill-opacity:1;fill-rule:nonzero;stroke:none"
             d="m 16294.4,9154.09 h -32 v -21.63 h 37.6 V 9119 h -54.2 v 80.97 h 54.1 v -13.53 h -37.5 v -19.29 h 32 v -13.06" /></g><g
           transform="scale(1.49986)"
           id="g484"><path
             inkscape:connector-curvature="0"
             id="path486"
             style="fill:#100f0d;fill-opacity:1;fill-rule:nonzero;stroke:none"
             d="m 16253.9,9121.46 h 13.4 c 4.2,0 7.4,1.07 9.6,3.13 2.4,2.14 3.5,5.07 3.5,8.8 0,3.8 -1.1,6.8 -3.3,8.94 -2.1,2.2 -5.4,3.26 -9.9,3.26 h -13.3 z m 13.2,-13.47 h -13.2 v -29.53 h -16.6 v 80.6 h 29.9 c 9.5,0 16.9,-2.13 22.1,-6.33 5.1,-4.27 7.7,-10.27 7.7,-18 0,-5.54 -1.2,-10.07 -3.6,-13.74 -2.3,-3.73 -6,-6.6 -10.8,-8.8 l 17.4,-32.93 v -0.8 h -17.8 l -15.1,29.53" /></g><g
           transform="scale(1.47845)"
           id="g488"><path
             inkscape:connector-curvature="0"
             id="path490"
             style="fill:#100f0d;fill-opacity:1;fill-rule:nonzero;stroke:none"
             d="m 16300,8877.45 h -25.1 v -68.11 h -16.8 v 68.11 h -24.7 v 13.66 h 66.6 v -13.66" /></g><g
           transform="scale(1.48094)"
           id="g492"><path
             inkscape:connector-curvature="0"
             id="path494"
             style="fill:#100f0d;fill-opacity:1;fill-rule:nonzero;stroke:none"
             d="m 16300,8794.52 h -16.8 v 81.64 h 16.8 v -81.64" /></g><g
           transform="scale(1.49017)"
           id="g496"><path
             inkscape:connector-curvature="0"
             id="path498"
             style="fill:#100f0d;fill-opacity:1;fill-rule:nonzero;stroke:none"
             d="m 16236.5,8821.24 20.8,-58.86 20.8,58.86 h 21.9 v -81.14 h -16.8 v 22.22 l 1.7,38.25 -21.9,-60.47 h -11.5 l -21.8,60.4 1.7,-38.18 v -22.22 h -16.8 v 81.14 h 21.9" /></g><g
           transform="scale(1.49647)"
           id="g500"><path
             inkscape:connector-curvature="0"
             id="path502"
             style="fill:#100f0d;fill-opacity:1;fill-rule:nonzero;stroke:none"
             d="m 16294.5,8738.28 h -32.1 v -21.65 h 37.6 v -13.36 h -54.2 v 80.79 h 54.1 v -13.5 h -37.5 v -19.24 h 32.1 v -13.04" /></g><g
           transform="scale(1.4684)"
           id="g504"><path
             inkscape:connector-curvature="0"
             id="path506"
             style="fill:#100f0d;fill-opacity:1;fill-rule:nonzero;stroke:none"
             d="m 16254,8804.01 v -54.96 h 8.3 c 6.6,0 11.6,2.18 15.2,6.54 3.4,4.29 5.3,10.56 5.3,18.59 v 4.36 c 0,8.38 -1.7,14.71 -5.2,19 -3.5,4.36 -8.5,6.47 -15.2,6.47 z m -16.9,-68.58 v 82.34 h 25.3 c 7.2,0 13.7,-1.64 19.4,-4.91 5.7,-3.26 10.2,-7.9 13.4,-13.89 3.2,-5.99 4.8,-12.87 4.8,-20.5 v -3.81 c 0,-7.63 -1.6,-14.44 -4.7,-20.36 -3.2,-6 -7.6,-10.56 -13.3,-13.9 -5.8,-3.26 -12.2,-4.9 -19.4,-4.97 h -25.5" /></g><g
           transform="scale(1.47448)"
           id="g508"><path
             inkscape:connector-curvature="0"
             id="path510"
             style="fill:#100f0d;fill-opacity:1;fill-rule:nonzero;stroke:none"
             d="m 16294.4,8734.95 h -32.4 v -21.97 h 38 v -13.56 h -54.9 v 81.99 h 54.8 v -13.7 h -37.9 v -19.53 h 32.4 v -13.23" /></g><g
           transform="scale(1.4802)"
           id="g512"><path
             inkscape:connector-curvature="0"
             id="path514"
             style="fill:#100f0d;fill-opacity:1;fill-rule:nonzero;stroke:none"
             d="m 16295.9,8699.15 h -32.2 v -33.38 h -16.9 v 81.68 h 53.2 v -13.64 h -36.3 v -21.08 h 32.2 v -13.58" /></g><g
           transform="scale(1.48687)"
           id="g516"><path
             inkscape:connector-curvature="0"
             id="path518"
             style="fill:#100f0d;fill-opacity:1;fill-rule:nonzero;stroke:none"
             d="m 16253.5,8670.32 h 13.5 c 4.1,0 7.4,1.01 9.7,3.16 2.3,2.16 3.5,5.12 3.5,8.88 0,3.83 -1.1,6.86 -3.3,9.01 -2.2,2.22 -5.5,3.3 -10,3.3 h -13.4 z m 13.3,-13.58 h -13.3 v -29.8 h -16.8 v 81.31 h 30.2 c 9.6,0 17,-2.15 22.2,-6.45 5.2,-4.24 7.8,-10.29 7.8,-18.09 0,-5.59 -1.1,-10.23 -3.6,-13.93 -2.4,-3.69 -6,-6.59 -10.9,-8.81 l 17.6,-33.22 v -0.81 h -18 l -15.2,29.8" /></g><g
           transform="scale(1.49383)"
           id="g520"><path
             inkscape:connector-curvature="0"
             id="path522"
             style="fill:#100f0d;fill-opacity:1;fill-rule:nonzero;stroke:none"
             d="m 16283.1,8629 c 0,8.5 -1.5,14.93 -4.5,19.35 -3,4.42 -7.4,6.63 -13,6.63 -5.6,0 -9.9,-2.21 -13,-6.56 -3,-4.36 -4.5,-10.71 -4.6,-19.15 v -3.95 c 0,-8.23 1.5,-14.66 4.5,-19.21 3.1,-4.55 7.5,-6.83 13.2,-6.83 5.6,0 9.9,2.21 12.9,6.56 3,4.42 4.5,10.78 4.5,19.21 z m 16.9,-3.68 c 0,-7.96 -1.4,-14.93 -4.2,-20.95 -2.8,-5.96 -6.8,-10.65 -12.1,-13.86 -5.3,-3.28 -11.2,-4.89 -18,-4.89 -6.7,0 -12.7,1.61 -18,4.82 -5.2,3.22 -9.3,7.83 -12.2,13.79 -2.9,6.03 -4.3,12.86 -4.4,20.69 v 3.95 c 0,7.96 1.4,14.99 4.3,21.09 2.9,6.02 7,10.64 12.2,13.92 5.2,3.21 11.2,4.89 18,4.89 6.7,0 12.7,-1.68 17.9,-4.89 5.3,-3.28 9.3,-7.9 12.2,-13.92 2.9,-6.1 4.3,-13.06 4.3,-21.03 v -3.61" /></g><g
           transform="scale(1.50033)"
           id="g524"><path
             inkscape:connector-curvature="0"
             id="path526"
             style="fill:#100f0d;fill-opacity:1;fill-rule:nonzero;stroke:none"
             d="m 16283.3,8570.68 c 0,3.13 -1.1,5.59 -3.3,7.26 -2.2,1.67 -6.2,3.4 -11.9,5.27 -5.8,1.86 -10.4,3.73 -13.7,5.53 -9.1,4.93 -13.7,11.6 -13.7,19.99 0,4.34 1.2,8.2 3.6,11.6 2.5,3.47 6,6.13 10.6,8 4.6,1.93 9.8,2.93 15.5,2.93 5.7,0 10.9,-1.06 15.4,-3.13 4.5,-2.13 8,-5.06 10.5,-8.87 2.4,-3.79 3.7,-8.06 3.7,-12.93 h -16.6 c 0,3.67 -1.2,6.54 -3.5,8.6 -2.3,2.07 -5.6,3.07 -9.8,3.07 -4,0 -7.2,-0.87 -9.4,-2.53 -2.3,-1.74 -3.4,-4 -3.4,-6.8 0,-2.6 1.3,-4.8 3.9,-6.6 2.7,-1.73 6.5,-3.4 11.7,-5 9.4,-2.8 16.3,-6.33 20.6,-10.53 4.4,-4.2 6.5,-9.47 6.5,-15.73 0,-6.93 -2.7,-12.46 -7.9,-16.4 -5.3,-4 -12.4,-5.93 -21.3,-5.93 -6.2,0 -11.9,1.13 -16.9,3.4 -5.2,2.27 -9,5.33 -11.7,9.33 -2.7,3.93 -4,8.53 -4,13.73 h 16.6 c 0,-8.93 5.3,-13.4 16,-13.4 3.9,0 7,0.87 9.2,2.47 2.2,1.6 3.3,3.8 3.3,6.67" /></g><g
           transform="scale(1.50694)"
           id="g528"><path
             inkscape:connector-curvature="0"
             id="path530"
             style="fill:#100f0d;fill-opacity:1;fill-rule:nonzero;stroke:none"
             d="m 16300,8578.85 h -24.6 v -66.82 h -16.5 v 66.82 h -24.2 v 13.4 h 65.3 v -13.4" /></g><g
           transform="scale(1.53487)"
           id="g532"><path
             inkscape:connector-curvature="0"
             id="path534"
             style="fill:#100f0d;fill-opacity:1;fill-rule:nonzero;stroke:none"
             d="m 16273.2,8508.31 10.6,56.03 h 16.2 l -17.5,-78.77 h -16.3 l -12.8,52.71 -12.8,-52.71 h -16.4 l -17.4,78.77 h 16.1 l 10.7,-55.9 13,55.9 h 13.7 l 12.9,-56.03" /></g><g
           transform="scale(1.54066)"
           id="g536"><path
             inkscape:connector-curvature="0"
             id="path538"
             style="fill:#100f0d;fill-opacity:1;fill-rule:nonzero;stroke:none"
             d="m 16294.6,8487.65 h -31 v -21.03 h 36.4 v -12.99 h -52.6 v 78.48 h 52.5 V 8519 h -36.3 v -18.7 h 31 v -12.65" /></g><g
           transform="scale(1.54318)"
           id="g540"><path
             inkscape:connector-curvature="0"
             id="path542"
             style="fill:#100f0d;fill-opacity:1;fill-rule:nonzero;stroke:none"
             d="m 16300,8439.82 h -16.1 v 78.35 h 16.1 v -78.35" /></g><g
           transform="scale(1.55047)"
           id="g544"><path
             inkscape:connector-curvature="0"
             id="path546"
             style="fill:#100f0d;fill-opacity:1;fill-rule:nonzero;stroke:none"
             d="m 16300,8410.05 c -2.9,-3.48 -7,-6.13 -12.3,-8.06 -5.2,-1.87 -11.1,-2.84 -17.6,-2.84 -6.7,0 -12.6,1.49 -17.7,4.39 -5.1,2.96 -9,7.22 -11.7,12.83 -2.8,5.61 -4.2,12.19 -4.3,19.74 v 5.29 c 0,7.8 1.3,14.51 3.9,20.25 2.6,5.67 6.4,9.99 11.4,13.03 4.9,3.03 10.7,4.51 17.3,4.51 9.3,0 16.5,-2.19 21.7,-6.58 5.2,-4.38 8.3,-10.83 9.3,-19.22 h -15.7 c -0.7,4.45 -2.2,7.68 -4.7,9.74 -2.4,2.07 -5.8,3.16 -10,3.16 -5.5,0 -9.7,-2.06 -12.6,-6.19 -2.8,-4.06 -4.3,-10.19 -4.3,-18.32 v -4.96 c 0,-8.19 1.6,-14.32 4.7,-18.51 3.1,-4.2 7.6,-6.26 13.6,-6.26 6,0 10.4,1.29 12.9,3.81 v 13.47 h -14.6 v 11.81 h 30.7 v -31.09" /></g><g
           transform="scale(1.55774)"
           id="g548"><path
             inkscape:connector-curvature="0"
             id="path550"
             style="fill:#100f0d;fill-opacity:1;fill-rule:nonzero;stroke:none"
             d="m 16300,8360.98 h -16 v 33.25 h -31.1 v -33.25 h -16 v 77.61 h 16 v -31.45 h 31.1 v 31.45 h 16 v -77.61" /></g><g
           transform="scale(1.5645)"
           id="g552"><path
             inkscape:connector-curvature="0"
             id="path554"
             style="fill:#100f0d;fill-opacity:1;fill-rule:nonzero;stroke:none"
             d="m 16300,8389.18 h -23.6 v -64.36 h -16 v 64.36 h -23.3 v 12.91 h 62.9 v -12.91" /></g><g
           transform="scale(1.5291)"
           id="g556"><path
             inkscape:connector-curvature="0"
             id="path558"
             style="fill:#100f0d;fill-opacity:1;fill-rule:nonzero;stroke:none"
             d="m 16255.9,8454.49 v -52.77 h 7.8 c 6.4,0 11.3,2.09 14.6,6.27 3.4,4.19 5.1,10.14 5.2,17.86 v 4.19 c 0,8.04 -1.7,14.12 -5,18.24 -3.4,4.18 -8.2,6.21 -14.6,6.21 z m -16.3,-65.85 v 79.06 h 24.3 c 6.9,0 13.1,-1.57 18.6,-4.71 5.5,-3.14 9.8,-7.58 12.9,-13.34 3,-5.75 4.6,-12.29 4.6,-19.68 v -3.6 c 0,-7.39 -1.6,-13.93 -4.6,-19.62 -3,-5.75 -7.2,-10.13 -12.7,-13.27 -5.5,-3.21 -11.7,-4.78 -18.7,-4.84 h -24.4" /></g><g
           transform="scale(1.53518)"
           id="g560"><path
             inkscape:connector-curvature="0"
             id="path562"
             style="fill:#100f0d;fill-opacity:1;fill-rule:nonzero;stroke:none"
             d="m 16294.6,8389.55 h -31.1 v -21.11 h 36.5 v -13.02 h -52.8 v 78.75 h 52.7 v -13.16 h -36.4 v -18.76 h 31.1 v -12.7" /></g><g
           transform="scale(1.54091)"
           id="g564"><path
             inkscape:connector-curvature="0"
             id="path566"
             style="fill:#100f0d;fill-opacity:1;fill-rule:nonzero;stroke:none"
             d="m 16296.1,8356.44 h -31 v -32.06 h -16.2 v 78.46 h 51.1 v -13.11 h -34.9 v -20.25 h 31 v -13.04" /></g><g
           transform="scale(1.54757)"
           id="g568"><path
             inkscape:connector-curvature="0"
             id="path570"
             style="fill:#100f0d;fill-opacity:1;fill-rule:nonzero;stroke:none"
             d="m 16255.2,8330.22 h 13 c 4.1,0 7.2,0.97 9.4,3.03 2.2,2.07 3.3,4.92 3.3,8.53 0,3.69 -1,6.59 -3.1,8.66 -2.1,2.13 -5.3,3.17 -9.7,3.17 h -12.9 z m 12.9,-13.05 h -12.9 v -28.63 h -16.1 v 78.12 h 29 c 9.3,0 16.4,-2.07 21.4,-6.14 5,-4.13 7.5,-9.95 7.5,-17.44 0,-5.37 -1.1,-9.76 -3.5,-13.32 -2.2,-3.61 -5.7,-6.39 -10.4,-8.53 l 16.9,-31.92 v -0.77 h -17.3 l -14.6,28.63" /></g><g
           transform="scale(1.55454)"
           id="g572"><path
             inkscape:connector-curvature="0"
             id="path574"
             style="fill:#100f0d;fill-opacity:1;fill-rule:nonzero;stroke:none"
             d="m 16283.8,8292.04 c 0,8.16 -1.5,14.34 -4.4,18.59 -2.9,4.24 -7.1,6.37 -12.5,6.37 -5.4,0 -9.6,-2.13 -12.4,-6.31 -3,-4.18 -4.5,-10.29 -4.5,-18.4 v -3.79 c 0,-7.91 1.5,-14.09 4.4,-18.46 2.9,-4.38 7.1,-6.57 12.6,-6.57 5.3,0 9.5,2.13 12.4,6.31 2.8,4.24 4.3,10.42 4.4,18.46 z m 16.2,-3.54 c 0,-7.66 -1.4,-14.35 -4.1,-20.14 -2.7,-5.72 -6.5,-10.16 -11.6,-13.31 -5,-3.15 -10.8,-4.7 -17.3,-4.7 -6.4,0 -12.2,1.55 -17.2,4.63 -5.1,3.09 -9,7.53 -11.8,13.25 -2.8,5.79 -4.2,12.36 -4.2,19.88 v 3.8 c 0,7.72 1.4,14.41 4.1,20.26 2.8,5.79 6.6,10.29 11.7,13.38 5,3.09 10.8,4.7 17.3,4.7 6.5,0 12.2,-1.61 17.3,-4.7 5,-3.09 8.9,-7.59 11.7,-13.38 2.7,-5.85 4.1,-12.54 4.1,-20.2 v -3.47" /></g><g
           transform="scale(1.56102)"
           id="g576"><path
             inkscape:connector-curvature="0"
             id="path578"
             style="fill:#100f0d;fill-opacity:1;fill-rule:nonzero;stroke:none"
             d="m 16284,8237.48 c 0,3.01 -1,5.31 -3.2,6.91 -2.1,1.6 -5.9,3.34 -11.5,5.13 -5.5,1.73 -9.9,3.52 -13.1,5.25 -8.8,4.74 -13.1,11.15 -13.1,19.22 0,4.16 1.1,7.88 3.5,11.21 2.3,3.27 5.7,5.83 10.1,7.69 4.4,1.79 9.4,2.75 14.9,2.75 5.5,0 10.5,-1.02 14.8,-3.01 4.3,-2.05 7.6,-4.87 10,-8.52 2.4,-3.65 3.6,-7.75 3.6,-12.43 h -16 c 0,3.59 -1,6.28 -3.3,8.27 -2.2,1.98 -5.4,2.94 -9.4,2.94 -3.9,0 -6.9,-0.83 -9.1,-2.43 -2.1,-1.67 -3.2,-3.84 -3.2,-6.53 0,-2.5 1.2,-4.62 3.8,-6.35 2.5,-1.66 6.3,-3.26 11.2,-4.8 9,-2.69 15.7,-6.09 19.8,-10.12 4.1,-4.04 6.2,-9.1 6.2,-15.12 0,-6.66 -2.5,-11.92 -7.6,-15.76 -5,-3.78 -11.9,-5.7 -20.5,-5.7 -5.9,0 -11.3,1.09 -16.2,3.27 -4.9,2.17 -8.6,5.18 -11.2,8.96 -2.6,3.78 -3.9,8.21 -3.9,13.2 h 16 c 0,-8.58 5.2,-12.81 15.3,-12.81 3.8,0 6.8,0.77 8.9,2.3 2.2,1.54 3.2,3.66 3.2,6.48" /></g><g
           transform="scale(1.56764)"
           id="g580"><path
             inkscape:connector-curvature="0"
             id="path582"
             style="fill:#100f0d;fill-opacity:1;fill-rule:nonzero;stroke:none"
             d="m 16300,8246.64 h -23.6 v -64.23 h -15.9 v 64.23 h -23.3 v 12.89 h 62.8 v -12.89" /></g><g
           transform="scale(1.41492)"
           id="g584"><path
             inkscape:connector-curvature="0"
             id="path586"
             style="fill:#100f0d;fill-opacity:1;fill-rule:nonzero;stroke:none"
             d="m 16282.3,6934.03 c 0,3.32 -1.1,5.94 -3.4,7.7 -2.4,1.77 -6.6,3.61 -12.8,5.59 -6,1.97 -10.8,3.95 -14.4,5.86 -9.7,5.23 -14.6,12.3 -14.6,21.2 0,4.6 1.3,8.7 3.9,12.3 2.6,3.68 6.3,6.51 11.2,8.48 4.9,2.05 10.3,3.11 16.4,3.11 6.1,0 11.5,-1.13 16.3,-3.32 4.8,-2.26 8.5,-5.37 11.1,-9.4 2.7,-4.03 4,-8.55 4,-13.71 h -17.6 c 0,3.89 -1.2,6.93 -3.7,9.12 -2.4,2.19 -5.9,3.25 -10.4,3.25 -4.3,0 -7.6,-0.92 -10,-2.69 -2.4,-1.83 -3.6,-4.24 -3.6,-7.2 0,-2.76 1.4,-5.09 4.2,-7 2.8,-1.84 7,-3.61 12.3,-5.3 10.1,-2.97 17.3,-6.72 21.9,-11.17 4.6,-4.45 6.9,-10.04 6.9,-16.68 0,-7.42 -2.8,-13.21 -8.4,-17.38 -5.6,-4.25 -13.1,-6.29 -22.6,-6.29 -6.5,0 -12.5,1.2 -17.9,3.6 -5.5,2.4 -9.6,5.65 -12.4,9.89 -2.8,4.17 -4.2,8.98 -4.2,14.56 h 17.7 c 0,-9.47 5.5,-14.2 16.8,-14.2 4.2,0 7.5,0.92 9.9,2.61 2.3,1.7 3.4,4.03 3.4,7.07" /></g><g
           transform="scale(1.42153)"
           id="g588"><path
             inkscape:connector-curvature="0"
             id="path590"
             style="fill:#100f0d;fill-opacity:1;fill-rule:nonzero;stroke:none"
             d="m 16300,6950.31 h -26 v -70.84 h -17.5 v 70.84 h -25.7 v 14.21 h 69.2 v -14.21" /></g><g
           transform="scale(1.42836)"
           id="g592"><path
             inkscape:connector-curvature="0"
             id="path594"
             style="fill:#100f0d;fill-opacity:1;fill-rule:nonzero;stroke:none"
             d="m 16282.4,6890.86 c 0,8.89 -1.7,15.61 -4.8,20.23 -3.2,4.62 -7.8,6.94 -13.7,6.94 -5.8,0 -10.3,-2.32 -13.5,-6.87 -3.1,-4.55 -4.7,-11.2 -4.8,-20.02 v -4.13 c 0,-8.61 1.6,-15.33 4.8,-20.09 3.1,-4.76 7.7,-7.15 13.7,-7.15 5.9,0 10.3,2.32 13.5,6.87 3.1,4.62 4.7,11.34 4.8,20.09 z m 17.6,-3.85 c 0,-8.33 -1.5,-15.61 -4.4,-21.91 -3,-6.24 -7.1,-11.07 -12.7,-14.49 -5.4,-3.44 -11.7,-5.12 -18.8,-5.12 -7,0 -13.3,1.68 -18.8,5.04 -5.5,3.37 -9.8,8.2 -12.8,14.43 -3,6.3 -4.5,13.44 -4.5,21.63 v 4.13 c 0,8.33 1.4,15.68 4.4,22.05 3.1,6.31 7.3,11.14 12.8,14.57 5.4,3.36 11.7,5.11 18.7,5.11 7.1,0 13.3,-1.75 18.9,-5.11 5.4,-3.43 9.7,-8.26 12.7,-14.57 3,-6.37 4.5,-13.65 4.5,-21.98 v -3.78" /></g><g
           transform="scale(1.43515)"
           id="g596"><path
             inkscape:connector-curvature="0"
             id="path598"
             style="fill:#100f0d;fill-opacity:1;fill-rule:nonzero;stroke:none"
             d="m 16252.8,6857.97 h 15.5 c 4.6,0 8.1,1.05 10.5,3.21 2.5,2.16 3.6,5.29 3.6,9.27 0,4.11 -1.1,7.45 -3.6,10.03 -2.4,2.51 -5.8,3.83 -10.1,3.9 h -15.9 z m 0,-14.07 v -29.69 h -17.3 v 84.25 h 32.8 c 6.3,0 11.9,-1.19 16.7,-3.49 4.8,-2.3 8.5,-5.57 11.1,-9.82 2.6,-4.32 3.9,-9.13 3.9,-14.57 0,-8.29 -2.9,-14.77 -8.5,-19.51 -5.6,-4.8 -13.5,-7.17 -23.5,-7.17 h -15.2" /></g><g
           transform="scale(1.41269)"
           id="g600"><path
             inkscape:connector-curvature="0"
             id="path602"
             style="fill:#100f0d;fill-opacity:1;fill-rule:nonzero;stroke:none"
             d="m 16299.9,6817.33 c -0.7,-9.2 -4.1,-16.42 -10.2,-21.73 -6.1,-5.31 -14.2,-7.92 -24.2,-7.92 -11,0 -19.6,3.68 -26,11.04 -6.2,7.43 -9.4,17.55 -9.4,30.43 v 5.24 c 0,8.21 1.4,15.44 4.4,21.74 2.9,6.22 7,11.04 12.4,14.43 5.4,3.33 11.6,5.03 18.8,5.03 9.9,0 17.8,-2.69 23.8,-7.93 6,-5.31 9.6,-12.74 10.5,-22.29 h -17.6 c -0.5,5.52 -2,9.48 -4.6,12.03 -2.7,2.48 -6.7,3.68 -12.1,3.68 -5.9,0 -10.3,-2.05 -13.2,-6.3 -2.9,-4.18 -4.5,-10.76 -4.5,-19.61 v -6.44 c 0,-9.27 1.4,-16 4.2,-20.24 2.8,-4.32 7.2,-6.44 13.3,-6.44 5.4,0 9.4,1.27 12.1,3.75 2.7,2.47 4.3,6.3 4.6,11.53 h 17.7" /></g><g
           transform="scale(1.41846)"
           id="g604"><path
             inkscape:connector-curvature="0"
             id="path606"
             style="fill:#100f0d;fill-opacity:1;fill-rule:nonzero;stroke:none"
             d="m 16262.7,6775.3 h 37.3 v -14.1 h -54.8 v 85.24 h 17.5 v -71.14" /></g><g
           transform="scale(1.42431)"
           id="g608"><path
             inkscape:connector-curvature="0"
             id="path610"
             style="fill:#100f0d;fill-opacity:1;fill-rule:nonzero;stroke:none"
             d="m 16294.2,6770.24 h -33.7 v -22.75 h 39.5 v -14.04 h -56.9 v 84.89 h 56.8 v -14.19 h -39.4 v -20.22 h 33.7 v -13.69" /></g><g
           transform="scale(1.43153)"
           id="g612"><path
             inkscape:connector-curvature="0"
             id="path614"
             style="fill:#100f0d;fill-opacity:1;fill-rule:nonzero;stroke:none"
             d="m 16249.8,6730.99 h 21.1 l -10.6,31.65 z m 25.8,-14.11 h -30.5 l -5.8,-17.39 h -18.4 l 31.3,84.45 h 16.2 l 31.6,-84.45 h -18.5 l -5.9,17.39" /></g><g
           transform="scale(1.43799)"
           id="g616"><path
             inkscape:connector-curvature="0"
             id="path618"
             style="fill:#100f0d;fill-opacity:1;fill-rule:nonzero;stroke:none"
             d="m 16251.9,6714.21 h 13.9 c 4.4,0 7.7,1.05 10.1,3.27 2.4,2.23 3.6,5.29 3.6,9.18 0,3.97 -1.1,7.1 -3.4,9.32 -2.2,2.3 -5.7,3.41 -10.3,3.41 h -13.9 z m 13.7,-14.04 h -13.7 v -30.81 h -17.3 v 84.08 h 31.2 c 9.9,0 17.6,-2.23 22.9,-6.61 5.4,-4.45 8.1,-10.71 8.1,-18.77 0,-5.78 -1.2,-10.51 -3.7,-14.33 -2.5,-3.9 -6.2,-6.89 -11.3,-9.18 l 18.2,-34.35 v -0.84 h -18.6 l -15.8,30.81" /></g><g
           transform="scale(1.53529)"
           id="g620"><path
             inkscape:connector-curvature="0"
             id="path622"
             style="fill:#100f0d;fill-opacity:1;fill-rule:nonzero;stroke:none"
             d="m 16283.7,6390.4 c 0,3.06 -1,5.47 -3.2,7.1 -2.2,1.62 -6.1,3.32 -11.7,5.14 -5.6,1.82 -10.1,3.65 -13.4,5.41 -8.9,4.82 -13.4,11.33 -13.4,19.54 0,4.23 1.3,8.01 3.6,11.33 2.4,3.39 5.9,5.99 10.4,7.82 4.5,1.89 9.5,2.86 15.1,2.86 5.6,0 10.6,-1.04 15,-3.06 4.4,-2.08 7.8,-4.95 10.3,-8.66 2.4,-3.71 3.6,-7.88 3.6,-12.64 h -16.2 c 0,3.59 -1.1,6.38 -3.4,8.4 -2.3,2.03 -5.5,3 -9.6,3 -4,0 -7,-0.85 -9.2,-2.47 -2.2,-1.7 -3.3,-3.91 -3.3,-6.65 0,-2.54 1.3,-4.69 3.9,-6.45 2.5,-1.69 6.3,-3.32 11.3,-4.88 9.2,-2.74 15.9,-6.19 20.2,-10.29 4.2,-4.1 6.3,-9.25 6.3,-15.37 0,-6.84 -2.5,-12.18 -7.8,-16.03 -5.1,-3.91 -12,-5.79 -20.7,-5.79 -6.1,0 -11.6,1.1 -16.6,3.32 -5,2.21 -8.8,5.21 -11.4,9.12 -2.6,3.84 -3.9,8.27 -3.9,13.41 h 16.3 c 0,-8.72 5.2,-13.09 15.6,-13.09 3.8,0 6.8,0.85 9,2.41 2.2,1.57 3.2,3.72 3.2,6.52" /></g><g
           transform="scale(1.5419)"
           id="g624"><path
             inkscape:connector-curvature="0"
             id="path626"
             style="fill:#100f0d;fill-opacity:1;fill-rule:nonzero;stroke:none"
             d="m 16300,6407.74 h -24 v -65.31 h -16.1 v 65.31 h -23.7 v 13.1 h 63.8 v -13.1" /></g><g
           transform="scale(1.54849)"
           id="g628"><path
             inkscape:connector-curvature="0"
             id="path630"
             style="fill:#100f0d;fill-opacity:1;fill-rule:nonzero;stroke:none"
             d="m 16253.6,6344.56 h 19.5 l -9.8,29.19 z m 23.9,-13.04 h -28.3 l -5.3,-16.08 h -17.1 l 29.1,78.08 h 14.8 l 29.3,-78.08 h -17.1 l -5.4,16.08" /></g><g
           transform="scale(1.55496)"
           id="g632"><path
             inkscape:connector-curvature="0"
             id="path634"
             style="fill:#100f0d;fill-opacity:1;fill-rule:nonzero;stroke:none"
             d="m 16255.5,6330.59 h 12.9 c 4,0 7.1,1.03 9.3,3.09 2.2,2.06 3.3,4.89 3.3,8.49 0,3.66 -1,6.56 -3.1,8.62 -2.1,2.12 -5.2,3.15 -9.5,3.15 h -12.9 z m 12.7,-12.92 h -12.7 v -28.49 h -16 v 77.75 h 28.9 c 9.1,0 16.2,-2.06 21.2,-6.11 5,-4.12 7.4,-9.9 7.4,-17.36 0,-5.34 -1.1,-9.78 -3.4,-13.32 -2.3,-3.53 -5.8,-6.3 -10.4,-8.42 l 16.8,-31.77 v -0.77 h -17.2 l -14.6,28.49" /></g><g
           transform="scale(1.56117)"
           id="g636"><path
             inkscape:connector-curvature="0"
             id="path638"
             style="fill:#100f0d;fill-opacity:1;fill-rule:nonzero;stroke:none"
             d="m 16300,6328.67 h -23.7 v -64.51 h -16 v 64.51 h -23.4 v 12.94 h 63.1 v -12.94" /></g><g
           transform="scale(1.53085)"
           id="g640"><path
             inkscape:connector-curvature="0"
             id="path642"
             style="fill:#100f0d;fill-opacity:1;fill-rule:nonzero;stroke:none"
             d="m 16280.4,6309.03 h 19.6 v -14.17 h -19.6 v -22.08 h -14.9 v 22.08 h -19.7 v 14.17 h 19.7 v 21.23 h 14.9 v -21.23" /></g><g
           transform="scale(1.53664)"
           id="g644"><path
             inkscape:connector-curvature="0"
             id="path646"
             style="fill:#100f0d;fill-opacity:1;fill-rule:nonzero;stroke:none"
             d="m 16263.2,6287.47 h 8.3 c 4,0 6.9,0.97 8.8,2.99 1.9,1.95 2.8,4.56 2.8,7.88 0,3.18 -0.9,5.59 -2.8,7.41 -1.8,1.76 -4.4,2.61 -7.8,2.61 -3,0 -5.5,-0.78 -7.5,-2.41 -2,-1.69 -3,-3.77 -3,-6.44 h -15.6 c 0,4.1 1.1,7.81 3.3,11.06 2.2,3.25 5.3,5.79 9.3,7.61 4,1.89 8.3,2.8 13.1,2.8 8.4,0 14.9,-2.02 19.6,-5.98 4.7,-3.97 7.1,-9.51 7.1,-16.47 0,-3.58 -1.1,-6.9 -3.3,-9.96 -2.2,-2.99 -5.1,-5.33 -8.6,-6.96 4.4,-1.56 7.7,-3.97 9.8,-7.09 2.3,-3.19 3.3,-6.97 3.3,-11.26 0,-6.97 -2.5,-12.56 -7.6,-16.79 -5.1,-4.23 -11.9,-6.31 -20.3,-6.31 -7.8,0 -14.2,2.08 -19.2,6.18 -5,4.16 -7.5,9.63 -7.5,16.46 h 15.6 c 0,-2.99 1.1,-5.4 3.3,-7.29 2.3,-1.82 5,-2.79 8.2,-2.79 3.7,0 6.6,0.97 8.8,2.99 2,1.95 3.1,4.56 3.1,7.74 0,7.88 -4.3,11.78 -13,11.78 h -8.2 v 12.24" /></g><g
           transform="scale(1.54265)"
           id="g648"><path
             inkscape:connector-curvature="0"
             id="path650"
             style="fill:#100f0d;fill-opacity:1;fill-rule:nonzero;stroke:none"
             d="m 16284.4,6265.19 c 0,6.48 -0.9,11.22 -2.6,14.2 -1.8,2.92 -4.6,4.41 -8.3,4.41 -3.7,0 -6.4,-1.43 -8.1,-4.22 -1.8,-2.78 -2.7,-7.26 -2.8,-13.22 v -19.06 c 0,-6.42 0.8,-11.15 2.6,-14.26 1.7,-3.11 4.5,-4.67 8.4,-4.67 3.8,0 6.5,1.49 8.2,4.48 1.7,2.98 2.6,7.52 2.6,13.67 z m 15.6,-15.88 c 0,-10.82 -2.3,-19.12 -6.7,-24.83 -4.5,-5.77 -11.1,-8.62 -19.7,-8.62 -8.5,0 -15.1,2.79 -19.6,8.43 -4.5,5.64 -6.8,13.74 -7,24.24 v 14.39 c 0,10.96 2.3,19.26 6.8,24.96 4.6,5.64 11.1,8.49 19.7,8.49 8.5,0 15,-2.85 19.6,-8.42 4.5,-5.64 6.8,-13.68 6.9,-24.18 v -14.46" /></g><g
           transform="scale(1.55178)"
           id="g652"><path
             inkscape:connector-curvature="0"
             id="path654"
             style="fill:#100f0d;fill-opacity:1;fill-rule:nonzero;stroke:none"
             d="m 16283.9,6200.75 c 0,3.1 -1.1,5.42 -3.2,7.03 -2.2,1.61 -6,3.35 -11.6,5.09 -5.6,1.8 -10,3.61 -13.2,5.35 -8.9,4.77 -13.3,11.21 -13.3,19.33 0,4.19 1.2,7.93 3.6,11.28 2.4,3.28 5.8,5.86 10.2,7.67 4.4,1.87 9.4,2.83 14.9,2.83 5.6,0 10.6,-1.03 14.9,-3.03 4.4,-2.06 7.7,-4.89 10.1,-8.57 2.5,-3.67 3.7,-7.8 3.7,-12.5 h -16 c 0,3.54 -1.2,6.32 -3.5,8.31 -2.2,2 -5.4,2.97 -9.4,2.97 -4,0 -7,-0.84 -9.2,-2.45 -2.1,-1.68 -3.2,-3.87 -3.2,-6.57 0,-2.52 1.2,-4.64 3.8,-6.38 2.6,-1.68 6.3,-3.29 11.3,-4.84 9.1,-2.7 15.8,-6.12 19.9,-10.18 4.2,-4.06 6.3,-9.15 6.3,-15.21 0,-6.7 -2.6,-12.05 -7.7,-15.85 -5.1,-3.87 -12,-5.73 -20.6,-5.73 -6,0 -11.4,1.09 -16.4,3.28 -4.9,2.19 -8.6,5.22 -11.2,9.02 -2.6,3.81 -3.9,8.25 -3.9,13.28 h 16.1 c 0,-8.64 5.2,-12.89 15.4,-12.89 3.8,0 6.8,0.77 9,2.32 2.1,1.55 3.2,3.67 3.2,6.44" /></g><g
           transform="scale(1.55778)"
           id="g656"><path
             inkscape:connector-curvature="0"
             id="path658"
             style="fill:#100f0d;fill-opacity:1;fill-rule:nonzero;stroke:none"
             d="m 16294.7,6190.16 h -30.7 v -20.8 h 36 v -12.84 h -52 v 77.61 h 51.9 v -12.97 h -35.9 v -18.48 h 30.7 v -12.52" /></g><g
           transform="scale(1.56451)"
           id="g660"><path
             inkscape:connector-curvature="0"
             id="path662"
             style="fill:#100f0d;fill-opacity:1;fill-rule:nonzero;stroke:none"
             d="m 16299.9,6155.8 c -0.6,-8.31 -3.7,-14.83 -9.2,-19.63 -5.6,-4.79 -12.9,-7.15 -21.9,-7.15 -9.9,0 -17.7,3.32 -23.4,9.97 -5.7,6.71 -8.5,15.85 -8.5,27.48 v 4.73 c 0,7.42 1.3,13.94 3.9,19.62 2.6,5.63 6.4,9.97 11.3,13.04 4.8,3.01 10.4,4.54 16.9,4.54 8.9,0 16.1,-2.43 21.5,-7.16 5.5,-4.79 8.6,-11.5 9.5,-20.13 h -15.9 c -0.4,4.98 -1.8,8.56 -4.2,10.87 -2.4,2.23 -6,3.32 -10.9,3.32 -5.3,0 -9.3,-1.86 -11.9,-5.69 -2.7,-3.77 -4,-9.72 -4.1,-17.71 v -5.81 c 0,-8.38 1.3,-14.45 3.9,-18.28 2.5,-3.9 6.5,-5.82 11.9,-5.82 4.9,0 8.6,1.15 11,3.39 2.4,2.24 3.8,5.69 4.2,10.42 h 15.9" /></g><g
           transform="scale(1.41193)"
           id="g664"><path
             inkscape:connector-curvature="0"
             id="path666"
             style="fill:#100f0d;fill-opacity:1;fill-rule:nonzero;stroke:none"
             d="m 16252.1,9268.86 h 15.7 c 4.7,0 8.3,1.06 10.7,3.26 2.4,2.19 3.7,5.38 3.7,9.42 0,4.17 -1.3,7.57 -3.7,10.19 -2.5,2.55 -5.9,3.9 -10.2,3.97 h -16.2 z m 0,-14.31 v -30.17 h -17.7 v 85.63 h 33.4 c 6.5,0 12.2,-1.21 17,-3.54 4.9,-2.34 8.6,-5.67 11.2,-9.99 2.7,-4.39 4,-9.28 4,-14.8 0,-8.43 -2.9,-15.02 -8.6,-19.83 -5.8,-4.89 -13.7,-7.3 -23.8,-7.3 h -15.5" /></g><g
           transform="scale(1.41907)"
           id="g668"><path
             inkscape:connector-curvature="0"
             id="path670"
             style="fill:#100f0d;fill-opacity:1;fill-rule:nonzero;stroke:none"
             d="m 16282.2,9222.5 c 0,8.94 -1.6,15.71 -4.8,20.36 -3.2,4.65 -7.8,6.98 -13.7,6.98 -5.8,0 -10.4,-2.33 -13.6,-6.91 -3.2,-4.58 -4.9,-11.27 -4.9,-20.15 v -4.16 c 0,-8.67 1.6,-15.43 4.8,-20.23 3.2,-4.79 7.9,-7.18 13.8,-7.18 5.9,0 10.5,2.32 13.6,6.9 3.1,4.65 4.8,11.35 4.8,20.23 z m 17.8,-3.88 c 0,-8.39 -1.5,-15.71 -4.4,-22.06 -3,-6.27 -7.3,-11.2 -12.8,-14.58 -5.5,-3.46 -11.8,-5.15 -19,-5.15 -7,0 -13.3,1.69 -18.8,5.07 -5.6,3.39 -9.9,8.25 -12.9,14.52 -3.1,6.27 -4.6,13.53 -4.7,21.7 v 4.23 c 0,8.39 1.6,15.79 4.6,22.2 3,6.34 7.3,11.21 12.8,14.66 5.5,3.38 11.8,5.07 18.9,5.07 7.1,0 13.4,-1.69 19,-5.07 5.5,-3.45 9.8,-8.32 12.7,-14.66 3,-6.41 4.6,-13.74 4.6,-22.13 v -3.8" /></g><g
           transform="scale(1.42848)"
           id="g672"><path
             inkscape:connector-curvature="0"
             id="path674"
             style="fill:#100f0d;fill-opacity:1;fill-rule:nonzero;stroke:none"
             d="m 16271.2,9141.97 11.4,60.2 h 17.4 l -18.8,-84.64 h -17.5 l -13.8,56.64 -13.7,-56.64 h -17.6 l -18.8,84.64 h 17.4 l 11.5,-60.06 13.9,60.06 h 14.8 l 13.8,-60.2" /></g><g
           transform="scale(1.43428)"
           id="g676"><path
             inkscape:connector-curvature="0"
             id="path678"
             style="fill:#100f0d;fill-opacity:1;fill-rule:nonzero;stroke:none"
             d="m 16294.2,9117.21 h -33.4 v -22.59 h 39.2 v -13.94 h -56.5 v 84.29 h 56.4 v -14.08 h -39.1 v -20.08 h 33.4 v -13.6" /></g><g
           transform="scale(1.44094)"
           id="g680"><path
             inkscape:connector-curvature="0"
             id="path682"
             style="fill:#100f0d;fill-opacity:1;fill-rule:nonzero;stroke:none"
             d="m 16252,9083.35 h 13.9 c 4.3,0 7.7,1.11 10.1,3.33 2.3,2.22 3.5,5.27 3.5,9.16 0,3.95 -1.1,7.01 -3.3,9.3 -2.3,2.29 -5.7,3.4 -10.3,3.4 h -13.9 z m 13.7,-13.95 h -13.7 v -30.75 h -17.3 v 83.91 h 31.2 c 9.9,0 17.5,-2.23 22.9,-6.67 5.4,-4.37 8,-10.62 8,-18.66 0,-5.76 -1.2,-10.55 -3.7,-14.37 -2.5,-3.82 -6.2,-6.87 -11.2,-9.09 l 18.1,-34.28 v -0.84 h -18.5 l -15.8,30.75" /></g><g
           transform="scale(1.41389)"
           id="g684"><path
             inkscape:connector-curvature="0"
             id="path686"
             style="fill:#100f0d;fill-opacity:1;fill-rule:nonzero;stroke:none"
             d="m 16262.6,9086.35 h 37.4 v -14.14 h -55 v 85.51 h 17.6 v -71.37" /></g><g
           transform="scale(1.41974)"
           id="g688"><path
             inkscape:connector-curvature="0"
             id="path690"
             style="fill:#100f0d;fill-opacity:1;fill-rule:nonzero;stroke:none"
             d="m 16294.2,9071.76 h -33.7 v -22.82 h 39.5 v -14.09 h -57.1 V 9120 h 57 v -14.22 h -39.4 v -20.29 h 33.7 v -13.73" /></g><g
           transform="scale(1.42675)"
           id="g692"><path
             inkscape:connector-curvature="0"
             id="path694"
             style="fill:#100f0d;fill-opacity:1;fill-rule:nonzero;stroke:none"
             d="m 16261.3,9011.43 19.2,63.71 h 19.5 l -29.5,-84.74 h -18.2 l -29.4,84.74 h 19.3 l 19.1,-63.71" /></g><g
           transform="scale(1.43242)"
           id="g696"><path
             inkscape:connector-curvature="0"
             id="path698"
             style="fill:#100f0d;fill-opacity:1;fill-rule:nonzero;stroke:none"
             d="m 16294.2,8991.44 h -33.4 v -22.61 h 39.2 v -13.97 h -56.5 v 84.41 h 56.4 v -14.11 h -39.1 v -20.1 h 33.4 v -13.62" /></g><g
           transform="scale(1.43809)"
           id="g700"><path
             inkscape:connector-curvature="0"
             id="path702"
             style="fill:#100f0d;fill-opacity:1;fill-rule:nonzero;stroke:none"
             d="m 16263.3,8933.47 h 36.7 v -13.9 h -54 v 84.06 h 17.3 v -70.16" /></g><g
           transform="scale(1.44148)"
           id="g704"><path
             inkscape:connector-curvature="0"
             id="path706"
             style="fill:#d0cfd3;fill-opacity:1;fill-rule:nonzero;stroke:none"
             d="m 16187.3,8184.27 h -210.6 c -62.2,0 -112.7,50.43 -112.7,112.66 v 160.05 c 0,62.22 50.5,112.66 112.7,112.66 h 210.6 c 62.2,0 112.7,-50.44 112.7,-112.66 v -160.05 c 0,-62.23 -50.5,-112.66 -112.7,-112.66" /></g><g
           transform="scale(1.50373)"
           id="g708"><path
             inkscape:connector-curvature="0"
             id="path710"
             style="fill:#d0cfd3;fill-opacity:1;fill-rule:nonzero;stroke:none"
             d="m 16192,7845.49 h -201.9 c -59.6,0 -108,48.35 -108,108 v 153.42 c 0,59.65 48.4,108 108,108 h 201.9 c 59.7,0 108,-48.35 108,-108 v -153.42 c 0,-59.65 -48.3,-108 -108,-108" /></g><g
           transform="scale(1.56444)"
           id="g712"><path
             inkscape:connector-curvature="0"
             id="path714"
             style="fill:#d0cfd3;fill-opacity:1;fill-rule:nonzero;stroke:none"
             d="m 16196.2,7541.06 h -194.1 c -57.3,0 -103.8,46.47 -103.8,103.81 v 147.46 c 0,57.34 46.5,103.81 103.8,103.81 h 194.1 c 57.3,0 103.8,-46.47 103.8,-103.81 v -147.46 c 0,-57.34 -46.5,-103.81 -103.8,-103.81" /></g><g
           transform="scale(1.44148)"
           id="g716"><path
             inkscape:connector-curvature="0"
             id="path718"
             style="fill:#d0cfd3;fill-opacity:1;fill-rule:nonzero;stroke:none"
             d="m 16187.3,7650.38 h -210.6 c -62.2,0 -112.7,50.43 -112.7,112.66 v 160.04 c 0,62.23 50.5,112.73 112.7,112.73 h 210.6 c 62.2,0 112.7,-50.5 112.7,-112.73 v -160.04 c 0,-62.23 -50.5,-112.66 -112.7,-112.66" /></g><g
           transform="scale(1.50373)"
           id="g720"><path
             inkscape:connector-curvature="0"
             id="path722"
             style="fill:#d0cfd3;fill-opacity:1;fill-rule:nonzero;stroke:none"
             d="m 16192,7333.7 h -201.9 c -59.6,0 -108,48.34 -108,108 v 153.41 c 0,59.65 48.4,108.07 108,108.07 h 201.9 c 59.7,0 108,-48.42 108,-108.07 V 7441.7 c 0,-59.66 -48.3,-108 -108,-108" /></g><g
           transform="scale(1.56444)"
           id="g724"><path
             inkscape:connector-curvature="0"
             id="path726"
             style="fill:#d0cfd3;fill-opacity:1;fill-rule:nonzero;stroke:none"
             d="m 16196.2,7049.13 h -194.1 c -57.3,0 -103.8,46.47 -103.8,103.8 v 147.47 c 0,57.33 46.5,103.87 103.8,103.87 h 194.1 c 57.3,0 103.8,-46.54 103.8,-103.87 v -147.47 c 0,-57.33 -46.5,-103.8 -103.8,-103.8" /></g><g
           transform="scale(1.44148)"
           id="g728"><path
             inkscape:connector-curvature="0"
             id="path730"
             style="fill:#d0cfd3;fill-opacity:1;fill-rule:nonzero;stroke:none"
             d="m 16187.3,7116.48 h -210.6 c -62.2,0 -112.7,50.51 -112.7,112.73 v 160.05 c 0,62.22 50.5,112.66 112.7,112.66 h 210.6 c 62.2,0 112.7,-50.44 112.7,-112.66 v -160.05 c 0,-62.22 -50.5,-112.73 -112.7,-112.73" /></g><g
           transform="scale(1.50373)"
           id="g732"><path
             inkscape:connector-curvature="0"
             id="path734"
             style="fill:#d0cfd3;fill-opacity:1;fill-rule:nonzero;stroke:none"
             d="m 16192,6304.12 h -201.9 c -59.6,0 -108,48.35 -108,108 v 153.42 c 0,59.65 48.4,108 108,108 h 201.9 c 59.7,0 108,-48.35 108,-108 v -153.42 c 0,-59.65 -48.3,-108 -108,-108" /></g><g
           transform="scale(1.50373)"
           id="g736"><path
             inkscape:connector-curvature="0"
             id="path738"
             style="fill:#d0cfd3;fill-opacity:1;fill-rule:nonzero;stroke:none"
             d="m 16192,6821.9 h -201.9 c -59.6,0 -108,48.42 -108,108.07 v 153.42 c 0,59.65 48.4,108 108,108 h 201.9 c 59.7,0 108,-48.35 108,-108 v -153.42 c 0,-59.65 -48.3,-108.07 -108,-108.07" /></g><g
           transform="scale(1.56444)"
           id="g740"><path
             inkscape:connector-curvature="0"
             id="path742"
             style="fill:#d0cfd3;fill-opacity:1;fill-rule:nonzero;stroke:none"
             d="m 16196.2,6557.19 h -194.1 c -57.3,0 -103.8,46.53 -103.8,103.87 v 147.47 c 0,57.33 46.5,103.8 103.8,103.8 h 194.1 c 57.3,0 103.8,-46.47 103.8,-103.8 v -147.47 c 0,-57.34 -46.5,-103.87 -103.8,-103.87" /></g><g
           transform="scale(1.42402)"
           id="g744"><path
             inkscape:connector-curvature="0"
             id="path746"
             style="fill:#100f0d;fill-opacity:1;fill-rule:nonzero;stroke:none"
             d="m 16300,8421.59 h -28.1 v 108.22 l -33.5,-10.4 v 22.83 l 58.6,20.99 h 3 v -141.64" /></g><g
           transform="scale(1.48878)"
           id="g748"><path
             inkscape:connector-curvature="0"
             id="path750"
             style="fill:#100f0d;fill-opacity:1;fill-rule:nonzero;stroke:none"
             d="m 16300,8055.26 h -92.7 v 18.34 l 43.7,46.68 c 6.1,6.58 10.5,12.29 13.4,17.19 2.9,4.91 4.3,9.54 4.3,13.91 0,6.04 -1.5,10.74 -4.6,14.17 -3,3.49 -7.4,5.17 -12.9,5.17 -6.1,0 -10.9,-2.08 -14.4,-6.24 -3.5,-4.17 -5.2,-9.68 -5.2,-16.53 h -27 c 0,8.26 2,15.79 5.9,22.57 3.9,6.85 9.5,12.16 16.7,16.05 7.2,3.9 15.3,5.85 24.4,5.85 13.9,0 24.8,-3.36 32.5,-10.08 7.7,-6.65 11.5,-16.12 11.5,-28.34 0,-6.65 -1.7,-13.51 -5.1,-20.42 -3.5,-6.99 -9.4,-15.05 -17.9,-24.25 l -30.8,-32.44 h 58.2 v -21.63" /></g><g
           transform="scale(1.54929)"
           id="g752"><path
             inkscape:connector-curvature="0"
             id="path754"
             style="fill:#100f0d;fill-opacity:1;fill-rule:nonzero;stroke:none"
             d="m 16239.1,7817.04 h 13.8 c 6.5,0 11.3,1.62 14.5,4.91 3.2,3.29 4.8,7.61 4.8,13.04 0,5.22 -1.6,9.29 -4.7,12.2 -3.1,2.96 -7.5,4.38 -12.9,4.38 -5,0 -9.1,-1.35 -12.4,-4.06 -3.4,-2.71 -5.1,-6.2 -5.1,-10.59 h -25.7 c 0,6.78 1.8,12.91 5.4,18.27 3.7,5.42 8.8,9.62 15.4,12.65 6.5,3.03 13.8,4.58 21.7,4.58 13.8,0 24.5,-3.29 32.4,-9.87 7.8,-6.59 11.7,-15.69 11.7,-27.24 0,-5.94 -1.9,-11.43 -5.5,-16.4 -3.6,-5.03 -8.4,-8.84 -14.3,-11.55 7.3,-2.58 12.8,-6.52 16.4,-11.75 3.6,-5.22 5.4,-11.42 5.4,-18.58 0,-11.56 -4.2,-20.79 -12.7,-27.76 -8.3,-6.97 -19.5,-10.46 -33.4,-10.46 -13,0 -23.5,3.42 -31.8,10.27 -8.3,6.84 -12.3,15.87 -12.3,27.17 h 25.7 c 0,-4.91 1.9,-8.91 5.6,-12.01 3.6,-3.09 8.1,-4.64 13.5,-4.64 6.1,0 10.9,1.61 14.4,4.9 3.4,3.23 5.2,7.55 5.2,12.91 0,12.98 -7.1,19.43 -21.4,19.43 h -13.7 v 20.2" /></g><g
           transform="scale(1.42672)"
           id="g756"><path
             inkscape:connector-curvature="0"
             id="path758"
             style="fill:#100f0d;fill-opacity:1;fill-rule:nonzero;stroke:none"
             d="m 16224.7,7919.37 h 31.3 v 49.83 l -1.9,-3.22 z m 59.3,0 h 16 v -22.57 h -16 v -30.56 h -28 v 30.56 h -57.9 l -1.3,17.59 58.9,93.01 h 28.3 v -88.03" /></g><g
           transform="scale(1.48872)"
           id="g760"><path
             inkscape:connector-curvature="0"
             id="path762"
             style="fill:#100f0d;fill-opacity:1;fill-rule:nonzero;stroke:none"
             d="m 16211.9,7605.13 7.8,68.79 h 75.9 v -22.37 h -53.8 l -3.4,-29.09 c 6.4,3.36 13.2,5.11 20.4,5.11 12.9,0 22.9,-4.03 30.3,-12.02 7.3,-8 10.9,-19.15 10.9,-33.52 0,-8.73 -1.8,-16.59 -5.5,-23.44 -3.7,-6.92 -8.9,-12.3 -15.9,-16.13 -6.8,-3.82 -14.9,-5.71 -24.3,-5.71 -8.2,0 -15.8,1.68 -22.8,4.97 -6.9,3.3 -12.5,8 -16.5,13.98 -4.1,6.04 -6.3,12.89 -6.5,20.55 h 26.5 c 0.6,-5.64 2.6,-10.01 6,-13.16 3.4,-3.1 7.7,-4.71 13.2,-4.71 6.1,0 10.7,2.22 14,6.59 3.3,4.36 5,10.54 5,18.53 0,7.66 -2,13.58 -5.7,17.67 -3.8,4.1 -9.1,6.12 -16.1,6.12 -6.3,0 -11.5,-1.68 -15.5,-5.04 l -2.6,-2.35 -21.4,5.23" /></g><g
           transform="scale(1.54953)"
           id="g764"><path
             inkscape:connector-curvature="0"
             id="path766"
             style="fill:#100f0d;fill-opacity:1;fill-rule:nonzero;stroke:none"
             d="m 16255.1,7308.91 c -4.1,0 -7.9,-1.1 -11.2,-3.23 -3.5,-2.19 -5.9,-5.03 -7.5,-8.65 v -7.8 c 0,-8.65 1.6,-15.36 5,-20.2 3.4,-4.84 8.2,-7.3 14.3,-7.3 5.6,0 10,2.2 13.5,6.58 3.4,4.39 5.1,10.01 5.1,16.98 0,7.1 -1.7,12.78 -5.2,17.1 -3.4,4.32 -8.1,6.52 -14,6.52 z m 25.3,65.18 v -21.23 h -2.5 c -11.7,-0.2 -21.1,-3.23 -28.2,-9.1 -7.1,-5.94 -11.4,-14.14 -12.8,-24.59 6.9,7.03 15.6,10.52 26.1,10.52 11.3,0 20.3,-4 27,-12.13 6.6,-8.07 10,-18.72 10,-31.95 0,-8.45 -1.8,-16.13 -5.5,-22.97 -3.7,-6.84 -8.8,-12.14 -15.5,-15.94 -6.7,-3.81 -14.3,-5.75 -22.8,-5.75 -13.6,0 -24.7,4.78 -33.1,14.26 -8.4,9.56 -12.7,22.27 -12.7,38.15 v 9.29 c 0,14.13 2.7,26.59 8,37.36 5.4,10.85 13,19.17 23,25.11 9.9,5.94 21.5,8.9 34.7,8.97 h 4.3" /></g><g
           transform="scale(1.42646)"
           id="g768"><path
             inkscape:connector-curvature="0"
             id="path770"
             style="fill:#100f0d;fill-opacity:1;fill-rule:nonzero;stroke:none"
             d="m 16300,7453.7 -54.6,-125.56 h -29.5 l 54.7,118.62 h -70.3 v 22.57 h 99.7 v -15.63" /></g><g
           transform="scale(1.48863)"
           id="g772"><path
             inkscape:connector-curvature="0"
             id="path774"
             style="fill:#100f0d;fill-opacity:1;fill-rule:nonzero;stroke:none"
             d="m 16270.3,7120.19 c 0,5.24 -1.4,9.47 -4.2,12.63 -2.8,3.23 -6.7,4.84 -11.8,4.84 -5,0 -8.9,-1.55 -11.7,-4.64 -2.8,-3.16 -4.2,-7.39 -4.2,-12.83 0,-5.44 1.4,-9.74 4.2,-13.03 2.8,-3.29 6.7,-4.9 11.8,-4.9 5.1,0 9,1.61 11.7,4.9 2.8,3.29 4.2,7.59 4.2,13.03 z m 2.8,-59.05 c 0,5.91 -1.7,10.62 -5.1,14.11 -3.5,3.56 -8,5.31 -13.8,5.31 -5.7,0 -10.2,-1.75 -13.7,-5.24 -3.4,-3.5 -5.1,-8.2 -5.1,-14.18 0,-5.77 1.7,-10.41 5.1,-13.9 3.3,-3.56 8,-5.31 13.9,-5.31 5.8,0 10.4,1.68 13.7,5.11 3.3,3.42 5,8.12 5,14.1 z m 24,60.33 c 0,-6.58 -1.6,-12.36 -4.9,-17.47 -3.3,-5.1 -7.8,-9.13 -13.6,-12.16 6.6,-3.15 11.8,-7.52 15.7,-13.1 3.8,-5.51 5.7,-12.02 5.7,-19.55 0,-12.02 -4.1,-21.49 -12.2,-28.48 -8.2,-6.98 -19.4,-10.48 -33.4,-10.48 -14.1,0 -25.2,3.56 -33.5,10.55 -8.2,6.99 -12.3,16.46 -12.3,28.41 0,7.53 1.9,14.04 5.8,19.62 3.8,5.58 9,9.94 15.5,13.03 -5.8,3.03 -10.3,7.06 -13.5,12.16 -3.3,5.11 -4.9,10.89 -4.9,17.47 0,11.55 3.8,20.69 11.4,27.54 7.8,6.85 18.2,10.28 31.4,10.28 13.1,0 23.5,-3.36 31.3,-10.14 7.7,-6.79 11.5,-16.06 11.5,-27.68" /></g><g
           transform="scale(1.48863)"
           id="g776"><path
             inkscape:connector-curvature="0"
             id="path778"
             style="fill:#100f0d;fill-opacity:1;fill-rule:nonzero;stroke:none"
             d="m 16273.1,6582.38 c 0,11.22 -1.4,19.35 -4.5,24.52 -3.1,5.1 -7.9,7.66 -14.4,7.66 -6.3,0 -11,-2.42 -14,-7.33 -3,-4.83 -4.6,-12.49 -4.8,-22.83 v -32.92 c 0,-11.02 1.5,-19.21 4.5,-24.59 3.1,-5.37 7.8,-8.06 14.5,-8.06 6.6,0 11.3,2.55 14.2,7.73 2.9,5.17 4.5,13.03 4.5,23.64 z m 26.9,-27.41 c 0,-18.67 -3.8,-32.98 -11.6,-42.92 -7.7,-9.94 -19.1,-14.85 -34,-14.85 -14.7,0 -26,4.84 -33.9,14.58 -7.8,9.74 -11.7,23.64 -11.9,41.78 v 24.92 c 0,18.88 3.9,33.26 11.7,43.06 7.9,9.74 19.2,14.65 33.9,14.65 14.8,0 26,-4.84 33.8,-14.51 7.8,-9.74 11.9,-23.65 12,-41.79 v -24.92" /></g><g
           transform="scale(1.54924)"
           id="g780"><path
             inkscape:connector-curvature="0"
             id="path782"
             style="fill:#100f0d;fill-opacity:1;fill-rule:nonzero;stroke:none"
             d="m 16256.6,6809.15 c 4.2,0 7.7,1.09 10.7,3.23 3.1,2.13 5.3,4.77 6.9,7.81 v 10.58 c 0,8.78 -1.7,15.56 -5.1,20.4 -3.2,4.77 -7.8,7.23 -13.3,7.23 -5.2,0 -9.4,-2.39 -12.8,-7.1 -3.4,-4.78 -5,-10.72 -5,-17.82 0,-7.1 1.6,-12.91 4.9,-17.49 3.2,-4.52 7.8,-6.84 13.7,-6.84 z m 17.2,-9.81 c -6.7,-6.59 -14.6,-9.88 -23.6,-9.88 -11.5,0 -20.7,3.94 -27.5,11.81 -6.9,7.88 -10.4,18.53 -10.4,31.95 0,8.52 1.9,16.34 5.6,23.44 3.7,7.1 8.9,12.65 15.5,16.58 6.7,3.94 14.2,5.94 22.6,5.94 8.5,0 16.1,-2.13 22.8,-6.45 6.7,-4.26 11.8,-10.39 15.5,-18.46 3.8,-8.01 5.6,-17.24 5.7,-27.57 v -9.55 c 0,-21.69 -5.4,-38.73 -16.2,-51.12 -10.8,-12.39 -26,-18.98 -45.8,-19.82 l -6.4,-0.06 v 21.49 l 5.8,0.13 c 22.5,0.97 34.6,11.49 36.4,31.57" /></g><g
           transform="scale(1.43608)"
           id="g784"><path
             inkscape:connector-curvature="0"
             id="path786"
             style="fill:#100f0d;fill-opacity:1;fill-rule:nonzero;stroke:none"
             d="m 16300,6781.87 h -342.5 v 9.47 h 342.5 v -9.47" /></g><g
           transform="scale(1.55894)"
           id="g788"><path
             inkscape:connector-curvature="0"
             id="path790"
             style="fill:#100f0d;fill-opacity:1;fill-rule:nonzero;stroke:none"
             d="m 16300,6244.63 h -315.5 v 11.49 h 315.5 v -11.49" /></g><path
           inkscape:connector-curvature="0"
           id="path792"
           style="fill:#3e3e45;fill-opacity:1;fill-rule:nonzero;stroke:none"
           d="m 4780.55,12653.6 v 342.9 l 0.02,-342.9 h -0.02" /><g
           transform="scale(1.06125)"
           id="g794"><path
             inkscape:connector-curvature="0"
             id="path796"
             style="fill:#696a6d;fill-opacity:1;fill-rule:nonzero;stroke:none"
             d="m 4504.68,11923.4 v 323.1 L 7797.2,16300 h 200.24 L 4504.66,11923.4" /></g><g
           transform="scale(1.06125)"
           id="g798"><path
             inkscape:connector-curvature="0"
             id="path800"
             style="fill:#696a6d;fill-opacity:1;fill-rule:nonzero;stroke:none"
             d="m 4504.68,12806.1 v 314.1 L 7087.51,16300 h 205.5 L 4504.68,12806.1" /></g><g
           transform="scale(1.06125)"
           id="g802"><path
             inkscape:connector-curvature="0"
             id="path804"
             style="fill:#696a6d;fill-opacity:1;fill-rule:nonzero;stroke:none"
             d="m 4504.68,13796.6 v 303.3 L 6291.72,16300 h 210.83 L 4504.68,13796.6" /></g></g></g></g></svg>